<svg width="783" height="395" viewBox="0 0 783 395" fill="none" xmlns="http://www.w3.org/2000/svg">
<path d="M72.6459 180.233C40.4951 158.242 32.2593 114.35 54.2509 82.1996C76.2425 50.0487 115.962 47.9117 148.113 69.9033C180.264 91.8949 202.586 116.279 180.594 148.43C158.603 180.581 104.797 202.225 72.6459 180.233Z" fill="#406CB1"/>
<path fill-rule="evenodd" clip-rule="evenodd" d="M83.0484 39.321C83.6274 36.1187 84.2227 32.9457 84.7118 29.7243C85.1243 26.9957 83.2395 24.4465 80.5109 24.034C77.7824 23.6215 75.2358 25.5023 74.8233 28.2308C74.3492 31.3594 73.7689 34.4397 73.209 37.552C72.7189 40.27 74.527 42.8695 77.2449 43.3596C79.9587 43.8468 82.5583 42.0389 83.0484 39.321Z" fill="#406CB1"/>
<path fill-rule="evenodd" clip-rule="evenodd" d="M57.4981 45.7483C52.2632 36.9821 46.5897 28.4851 41.1717 19.836C39.7073 17.4955 36.6174 16.7877 34.277 18.252C31.9407 19.7192 31.2314 22.8019 32.6958 25.1423C38.0743 33.7341 43.714 42.1654 48.9094 50.8743C50.3249 53.2419 53.3986 54.0178 55.7662 52.6023C58.1379 51.1896 58.9136 48.1159 57.4981 45.7483Z" fill="#406CB1"/>
<path fill-rule="evenodd" clip-rule="evenodd" d="M33.2126 73.1584C25.4385 69.4946 17.5456 66.0402 9.81571 62.2854C7.33506 61.0854 4.34228 62.1218 3.13528 64.6037C1.9324 67.0885 2.96885 70.0812 5.4508 71.2882C13.2181 75.0503 21.1399 78.5245 28.9497 82.2067C31.4473 83.382 34.4265 82.3122 35.6018 79.8146C36.7812 77.3199 35.7101 74.3337 33.2126 73.1584Z" fill="#406CB1"/>
<path d="M208.5 80.4982L208.073 85.9816L208.5 80.4982ZM777.54 387.973C780.563 387.675 782.772 384.983 782.473 381.96C782.175 378.937 779.483 376.728 776.46 377.027L777.54 387.973ZM144.948 178.596C135.697 159.54 140.188 135.617 153.258 116.44C166.329 97.2645 186.954 84.3379 208.073 85.9816L208.927 75.0148C182.692 72.9728 158.696 88.9319 144.169 110.245C129.642 131.558 123.56 159.728 135.052 183.4L144.948 178.596ZM208.073 85.9816C222.642 87.1155 233.112 92.9726 241.644 102.413C250.372 112.071 257.154 125.573 263.82 142.117C276.959 174.727 289.312 218.645 316.004 259.983C342.947 301.709 384.566 341.142 456.571 366.378C528.397 391.551 630.216 402.518 777.54 387.973L776.46 377.027C630.034 391.482 529.978 380.449 460.21 355.997C390.622 331.608 350.928 293.791 325.245 254.016C299.312 213.854 287.728 172.021 274.023 138.006C267.267 121.238 259.901 106.208 249.805 95.0374C239.513 83.6495 226.483 76.3812 208.927 75.0148L208.073 85.9816Z" fill="white"/>
</svg>
