<svg width="28" height="24" viewBox="0 0 28 24" fill="none" xmlns="http://www.w3.org/2000/svg">
<path d="M2 2.00213C4.66667 2.00213 6.26461 5.78089 9.38462 5.99043C12.9525 6.23005 14.4284 1.8903 18 2.00213C21.3463 2.1069 23.3333 5.99043 26 5.99043" stroke="#233356" stroke-width="2.66667" stroke-linecap="round"/>
<path d="M2 10.0021C4.66667 10.0021 6.26461 13.7809 9.38462 13.9904C12.9525 14.23 14.4284 9.8903 18 10.0021C21.3463 10.1069 23.3333 13.9904 26 13.9904" stroke="#233356" stroke-width="2.66667" stroke-linecap="round"/>
<path d="M2 18.0021C4.66667 18.0021 6.26461 21.7809 9.38462 21.9904C12.9525 22.23 14.4284 17.8903 18 18.0021C21.3463 18.1069 23.3333 21.9904 26 21.9904" stroke="#233356" stroke-width="2.66667" stroke-linecap="round"/>
</svg>
