<svg width="99" height="36" viewBox="0 0 99 36" fill="none" xmlns="http://www.w3.org/2000/svg">
<g clip-path="url(#clip0_81_1998)">
<path d="M95.4807 14.4604C95.5572 14.2898 95.6719 14.034 95.666 13.7045C95.6722 13.5314 95.6401 13.4436 95.3159 12.6522C95.0571 12.0018 94.9595 11.7731 94.6861 11.5381C94.5836 11.4478 94.5144 11.4107 94.4453 11.3736C93.7206 10.9492 92.7786 10.6905 91.8924 10.3471C91.3538 10.1374 90.8146 9.94491 90.2742 9.78709C90.0649 9.72767 89.838 9.66762 89.6288 9.60821C89.1399 9.48687 88.6211 9.71108 88.3595 10.135C87.8804 9.73678 87.4498 9.46154 87.1569 9.27784C85.5176 8.31848 83.9738 8.14237 83.287 8.13532C82.7411 8.13327 82.2442 8.23695 82.2442 8.23695C81.9961 8.28013 81.7643 8.35856 81.5331 8.41967C81.484 8.31395 81.3683 8.10188 81.1099 7.93673C81.0068 7.86375 80.9025 7.82539 80.8151 7.80496C80.5543 7.70905 80.1552 7.53891 79.667 7.40027C76.7215 6.51585 76.2157 6.37659 73.5048 5.82978C71.8434 5.49352 70.1449 5.20794 68.461 5.00952C67.8647 4.93637 67.3222 5.33304 67.1964 5.90047L67.1757 5.98639C67.0708 5.96533 66.9658 5.94428 66.8779 5.94115C65.5992 5.73979 64.3017 5.57242 63.0193 5.47491C62.4399 5.41969 61.915 5.81699 61.8074 6.36773C61.2542 9.05162 60.7222 11.6323 60.1909 14.1956L59.8729 15.7094C59.435 15.6419 58.9964 15.5916 58.5578 15.5414C58.8297 13.8354 59.0356 12.0057 59.1396 10.0684C59.1879 9.20357 59.218 8.35545 59.2299 7.52402C59.2367 7.33363 59.119 7.17348 59.0051 6.90948C58.6179 5.90792 58.4246 5.39848 58.116 5.16223C58.116 5.16223 57.6878 4.81775 56.7276 4.57571C56.6227 4.55465 56.5353 4.53422 56.4304 4.51317L51.4956 4.09538C51.3373 4.08976 51.1959 4.10207 51.0533 4.149C50.9999 4.16444 50.8216 4.22743 50.6401 4.37696C50.313 4.65996 50.2637 5.05681 50.2424 5.16003C50.1863 5.74727 50.1472 6.35244 50.0912 6.93968C49.9112 6.55203 49.7293 6.2163 49.5814 5.91644C49.202 5.19243 49.0189 4.89131 48.6945 4.60251C48.626 4.54809 48.5241 4.44049 48.3519 4.3304C47.8867 4.0366 47.4494 3.95176 47.2037 3.92571C46.0821 3.76458 44.8525 3.66895 43.8837 3.66922C43.109 3.65905 42.3331 3.6835 41.573 3.7605C41.1489 3.79744 40.7872 4.06189 40.633 4.43768C40.3451 5.10334 40.0743 5.78694 39.804 6.45322C39.4876 5.93941 39.1718 5.4083 38.8377 4.89386C38.6207 4.55688 38.3812 4.35775 38.2265 4.24828C37.8997 4.02871 37.5503 3.94699 37.341 3.88757C37.2888 3.86839 37.2015 3.84796 37.0784 3.84358C36.1472 3.77587 35.2154 3.72547 34.2812 3.7443C33.5411 3.75269 32.7998 3.7957 32.0578 3.85601C31.4924 3.90526 31.0536 4.3576 31.0164 4.91085L30.6663 11.7959C30.4364 11.8224 30.2234 11.8668 29.9935 11.8933L30.0125 7.38811C29.9822 7.24839 29.9544 7.03944 29.8392 6.81006C29.7253 6.54606 29.5913 6.35067 28.8594 5.63148C28.247 5.02051 27.9911 4.78614 27.6642 4.56657C27.4235 4.40205 27.2846 4.34513 27.1633 4.28884C26.7114 4.11682 26.2691 4.17045 26.021 4.21363C25.3476 4.32837 24.656 4.45979 23.9279 4.62458C23.3601 4.74307 22.8268 4.88011 22.2935 5.01715C22.2583 5.0159 21.6546 5.15045 21.4779 5.66408C21.3995 5.88659 21.4455 6.07886 21.477 6.18396C21.2702 6.05531 21.0258 5.99464 20.7783 6.02052C19.241 6.15658 17.7158 6.44905 16.2566 6.86517C15.8471 6.98928 15.4199 7.11276 15.0268 7.27211C14.545 7.44564 14.247 7.90298 14.2819 8.40679C14.4326 10.6131 14.6536 12.8219 14.9105 15.0146C14.637 14.7796 14.27 14.6973 13.9151 14.7713L13.8818 14.7181C13.5768 14.378 13.1061 14.24 12.6607 14.3802L11.3957 14.7859C11.1106 14.8797 10.8745 15.0793 10.7421 15.3346C10.6288 15.0533 10.5155 14.772 10.4016 14.508C9.97857 13.5224 9.5562 12.5196 9.1332 11.5341C9.0023 11.2522 8.76338 11.0357 8.468 10.9213C8.25935 10.8446 8.04824 10.8371 7.83529 10.8815C7.70008 10.7207 7.52846 10.5933 7.31981 10.5166C7.02382 10.4194 6.68895 10.4249 6.41954 10.5713C5.55852 11.0086 4.6793 11.4627 3.83527 11.918C3.79947 11.934 2.61504 12.5505 1.49913 13.2215C1.54884 13.3099 1.40503 13.3914 1.29333 13.5608C0.865362 14.2041 1.44546 15.2299 1.66125 15.6015C5.52878 23.2601 8.32777 28.7665 8.37686 28.8722C8.37686 28.8722 8.39323 28.9074 8.40959 28.9427C8.44293 28.9959 8.49325 29.067 8.56055 29.156C8.56055 29.156 9.00543 30.021 10.3776 30.0697C10.4656 30.0728 10.5542 30.0586 10.5542 30.0586C10.6603 30.0451 10.7495 30.0136 10.8563 29.9827C11.7318 29.6325 12.6074 29.2823 13.4835 28.9148C14.0909 28.6764 14.6812 28.4201 15.2886 28.1817C15.6284 28.0378 15.8857 27.735 15.969 27.374L16.245 26.0494L16.4984 26.353C16.6161 26.5131 16.8034 26.6931 17.063 26.8236C17.9097 27.2869 18.8198 26.9553 18.9806 26.8917C20.9403 26.268 21.7757 26.0551 22.1476 25.9989C22.5553 25.9268 22.9654 25.7853 23.3738 25.6958C23.6577 25.6366 23.9107 25.455 24.0595 25.2349L29.1715 24.134C29.7042 24.0142 30.0726 23.5594 30.0734 23.0395L30.0617 19.3997L30.7169 19.3017L30.7304 20.4113C30.7514 20.8106 30.8285 22.1131 31.8558 22.9468C32.4379 23.418 33.0626 23.6828 33.8744 23.6423C35.1095 23.5822 36.3452 23.5048 37.5804 23.4446C37.5974 23.4625 37.6137 23.4978 37.6477 23.5336C37.8338 23.7482 38.1558 24.1063 39.4715 24.2569C39.8221 24.304 39.7354 24.2663 40.615 24.2975C42.0746 24.3667 42.5174 24.2957 43.2819 24.0976C43.513 24.0365 43.6732 23.9902 43.9062 23.8771C44.8564 23.4083 45.2967 22.4187 45.5062 21.9756C45.5444 21.8903 45.5827 21.805 45.6027 21.7364C45.8173 22.1426 46.3671 23.0286 47.4545 23.6565C48.0931 24.0257 48.7046 24.1687 49.1256 24.2183L52.8351 24.4193C53.1693 24.4312 53.4909 24.304 53.7282 24.0698C53.8016 23.9857 53.8751 23.9017 53.9315 23.7997C55.7574 23.9685 57.5651 24.154 59.3383 24.3209C59.3873 24.4266 59.4377 24.4977 59.471 24.5509C59.6553 24.8174 59.9319 24.9659 61.0297 25.2994C61.1862 25.357 61.3081 25.396 61.3955 25.4164C63.2887 25.6742 65.1819 25.9321 67.0757 26.1726C67.6896 26.2464 68.2497 25.8503 68.3591 25.2477C70.0903 25.6037 71.8215 25.9598 73.5703 26.3165C74.8641 26.5877 76.1586 26.8416 77.4524 27.1128C77.7848 27.1766 78.1222 27.1019 78.3758 26.903C78.5468 27.0477 78.8033 27.2648 79.112 27.501C79.9871 28.156 81.7197 29.4652 83.8876 29.9235C84.9188 30.1507 87.0685 30.6256 89.0673 29.3968C90.7955 28.349 91.8689 26.3941 91.8698 24.3838C91.8541 22.8409 91.2073 21.7088 90.8733 21.1943C90.9097 21.161 90.9461 21.1276 90.9831 21.0769L95.4807 14.4604Z" fill="#233356"/>
<path d="M15.2871 24.7504C15.2185 24.696 15.15 24.6416 15.0815 24.5872C14.9614 24.4962 14.8589 24.406 14.7565 24.3157C14.5991 24.778 14.4801 25.155 14.4181 25.4128C14.3379 25.6872 14.2935 25.9456 14.0738 26.1804C13.9633 26.3152 13.8371 26.3973 13.7473 26.4461C13.6217 26.511 13.3881 26.6413 13.1193 26.7704C12.4196 27.1269 12.0277 27.2516 11.2043 27.621C11.0077 27.7006 10.7207 27.8464 10.3621 28.0243C12.2854 27.4341 13.6924 26.9988 13.9254 26.8857C14.0328 26.8375 14.122 26.806 14.1936 26.7739C14.3908 26.6769 14.5365 26.5435 14.5365 26.5435C14.7374 26.3426 14.8509 26.1214 14.9086 25.9848C15.0107 25.5898 15.1486 25.1788 15.2871 24.7504Z" fill="#73B8D5"/>
<path d="M22.7815 24.5138C22.4424 24.6404 22.0686 24.7484 21.7125 24.8571C20.769 25.1356 19.8626 25.3633 19.0114 25.5238C20.0666 25.076 21.0156 24.6417 22.0883 24.1946C22.2781 24.3053 22.5917 24.4031 22.7815 24.5138Z" fill="#73B8D5"/>
<path d="M29.0746 22.3974C29.0271 22.7423 28.7528 23.0272 28.3979 23.1013C27.9902 23.1735 27.4393 23.3099 26.9801 23.3456C26.3965 23.4115 25.8675 23.4274 25.3743 23.4272C25.7116 23.3525 26.0508 23.2259 26.4415 23.1358C26.9748 22.9988 27.7034 22.8167 28.0972 22.64C28.2944 22.543 28.4419 22.3576 28.4669 22.1506L28.5889 20.6992L29.1606 21.4646L29.0746 22.3974Z" fill="#73B8D5"/>
<path d="M37.0919 22.3182C36.7224 22.3051 36.353 22.292 35.949 22.2603C34.965 22.1907 34.0357 22.0711 33.1956 21.9199C34.3416 21.8913 35.456 21.7575 36.6202 21.7122C36.7548 21.8903 36.9397 22.1395 37.0919 22.3182Z" fill="#73B8D5"/>
<path d="M42.2545 22.2761C42.5511 22.3559 42.8477 22.4358 43.1619 22.5162C42.9817 22.6312 42.7845 22.7281 42.5533 22.7893C42.2864 22.8664 42.0746 22.8762 41.8811 22.8694C41.3879 22.8692 40.5611 22.8398 39.4061 22.6256C39.6355 22.6164 41.3274 22.5898 42.0227 22.3545C42.1119 22.323 42.2011 22.2915 42.2545 22.2761Z" fill="#73B8D5"/>
<path d="M44.9208 20.6032C44.7897 20.8238 44.3842 21.3294 44.2555 21.4808C43.9953 21.3675 43.7176 21.2537 43.4574 21.1405C43.6601 20.8877 43.8641 20.6004 44.0881 20.2444C44.3658 20.3582 44.643 20.4894 44.9208 20.6032Z" fill="#73B8D5"/>
<path d="M46.9966 22.1672C46.9772 22.2185 47.8189 22.8203 48.9563 23.034C49.1837 23.0767 49.3421 23.0823 49.4828 23.0873C50.1853 23.1469 51.1164 23.2146 52.4164 23.3128C52.2127 23.0976 52.0083 22.8997 51.8046 22.6845C51.0311 22.6397 50.2571 22.6122 49.4836 22.5674C48.2364 22.4712 47.5722 22.3263 47.1895 22.1914C47.084 22.1876 46.9972 22.1499 46.9966 22.1672Z" fill="#73B8D5"/>
<path d="M54.5782 22.4536C56.418 22.7269 57.0112 22.8866 58.9748 23.1469C59.0525 22.9417 59.1309 22.7192 59.2086 22.514C57.288 22.5325 56.5334 22.4537 54.597 22.4196C54.5443 22.4177 54.543 22.4523 54.5782 22.4536Z" fill="#73B8D5"/>
<path d="M62.949 24.3278C62.9483 24.3451 63.6144 24.4381 64.4017 24.5874C65.1193 24.7168 66.6061 25.0122 67.1267 24.7361C67.3779 24.6063 67.5436 24.4043 67.5436 24.4043C67.6177 24.3029 67.6741 24.2009 67.7111 24.1503C67.6117 23.9734 67.5123 23.7966 67.4129 23.6198C67.2988 23.8583 67.0948 24.1457 66.7556 24.2723C66.6124 24.3366 66.4893 24.3322 66.4365 24.3303C65.5727 24.3516 62.9684 24.2765 62.949 24.3278Z" fill="#73B8D5"/>
<path d="M70.8705 24.4705C72.7279 24.7444 74.5677 25.0176 76.4251 25.2915C76.6609 25.5945 76.9144 25.8981 77.1508 26.1838C75.0746 25.6248 72.9637 25.0473 70.8705 24.4705Z" fill="#73B8D5"/>
<path d="M89.6114 25.4821C89.7806 25.6788 89.9497 25.8754 90.1183 26.0894C89.873 26.5486 89.4049 27.3292 88.6446 27.9087C87.0874 29.1012 84.7239 29.1906 82.538 28.2465C84.4844 28.9915 86.6429 28.7215 88.1309 27.4919C88.8743 26.8944 89.3229 26.1651 89.6114 25.4821Z" fill="#73B8D5"/>
<path d="M90.6923 24.3075C90.4885 24.0923 90.2678 23.8592 90.0641 23.644C90.0666 23.5748 90.0684 23.5228 90.0703 23.4709C90.1124 22.7792 90.0278 22.187 89.937 21.7678C90.2055 22.1413 90.4565 22.5141 90.7251 22.8876C90.7492 23.2004 90.7842 23.7042 90.6923 24.3075Z" fill="#73B8D5"/>
<path d="M88.765 21.5355C88.3676 20.3256 87.2246 19.2799 86.0112 18.2316C86.7476 18.3271 87.5022 18.4059 88.2386 18.5013C89.7604 16.3198 91.2823 14.1382 92.8041 11.9566C91.9732 11.5458 91.0355 11.1659 89.9722 10.8509C89.7629 10.7915 89.5712 10.7327 89.3614 10.6906C88.926 11.5416 88.4725 12.4094 88.0371 13.2604C87.9312 12.7714 87.7119 12.0011 87.1396 11.2529C86.2308 10.0596 84.4557 8.95672 82.5045 9.33806C80.2871 9.77925 79.1196 11.9041 78.8702 13.4723C78.5063 15.7816 80.0063 17.6892 80.2428 17.9749C80.5465 18.3496 80.9207 18.7268 81.3306 19.088C82.5767 20.2067 84.0377 21.2291 84.2381 22.0334C84.2696 22.1385 84.3295 22.4352 84.1814 22.6379C83.9787 22.8907 83.5401 22.8404 83.3818 22.8348C82.3281 22.7454 79.2483 19.69 78.2284 18.6486C78.109 18.5404 78.0241 18.4507 77.9738 18.3796C77.6223 18.8524 77.2533 19.3245 76.9018 19.7973C75.6092 19.4915 74.2814 19.1844 72.9536 18.8773C71.94 18.6507 70.9434 18.442 69.9468 18.2333C70.0745 17.614 70.2015 17.0119 70.3468 16.3932C71.6928 16.6836 73.8437 17.1239 74.9277 17.353L74.9283 17.3357C75.1022 16.406 75.4396 14.8409 75.6354 13.7907C75.6567 13.6875 75.678 13.5843 75.6993 13.4811C74.6153 13.2519 72.5869 12.8333 71.1705 12.5404C71.2763 12.0416 71.3815 11.5601 71.4872 11.0613C72.4687 11.2001 73.5011 11.3927 74.5675 11.6212C75.8959 11.911 77.1351 12.2323 78.2682 12.5671C78.6102 11.3661 78.9523 10.1651 79.2944 8.96415C79.3345 8.82694 79.3752 8.67241 79.4153 8.53519C77.5859 7.96768 75.5612 7.44522 73.3575 7.00306C71.6087 6.64637 69.9624 6.37998 68.401 6.20324C68.3566 6.46162 68.2946 6.71937 68.2508 6.96044L67.2976 11.4845L67.2131 11.8801C67.4187 10.5529 67.642 9.22643 67.8494 7.84737C67.8738 7.6576 67.9157 7.46846 67.9401 7.27869C67.5549 7.21302 67.1527 7.12943 66.75 7.06314C65.4361 6.86053 64.1913 6.69504 62.9793 6.60002C62.4242 9.33583 61.891 11.9511 61.3409 14.5485C61.1901 15.323 61.0217 16.0968 60.8709 16.8714C60.8697 16.906 60.8502 16.9573 60.849 16.9919C60.6737 16.9683 60.4808 16.9442 60.3061 16.9033C58.5536 16.6505 56.8691 16.4694 55.2525 16.36C55.4227 15.5342 55.5765 14.6731 55.731 13.7948C56.023 12.0201 56.2307 10.1385 56.3372 8.13194C56.3775 7.49215 56.4002 6.85174 56.4223 6.22864C56.4291 6.03824 56.4365 5.83054 56.4256 5.63952C54.775 5.49428 53.1414 5.36698 51.4908 5.22174C51.3545 7.57381 51.1629 9.99325 50.9149 12.5147C50.8875 12.791 50.8601 13.0673 50.8332 13.3263C50.7272 14.3277 50.6219 15.3118 50.4995 16.2779C50.4782 16.3811 50.4745 16.485 50.4532 16.5882C50.245 15.5064 50.0205 14.3893 49.7444 13.2357C49.421 11.9244 49.0461 10.5767 48.6203 9.17513C48.2411 7.94855 47.8248 6.77265 47.4067 5.64867C47.3262 5.43784 47.2456 5.22702 47.165 5.0162C46.2363 4.87925 45.1656 4.77193 44.0033 4.76533C43.211 4.75454 42.4697 4.79754 41.7987 4.84305C40.8204 7.09592 39.8249 9.83343 39.0616 12.9778C39.019 13.1842 38.9589 13.3901 38.9157 13.6138C38.5194 15.3501 38.2324 16.9863 38.02 18.5038C38.0206 18.4865 38.0218 18.4519 38.0224 18.4346C37.9104 16.6283 37.7808 14.8213 37.6681 13.0323C37.4819 10.3395 37.3138 7.63 37.1276 4.9372C36.302 4.87323 35.4054 4.82408 34.436 4.84166C33.6783 4.84942 32.9546 4.89306 32.3012 4.93918C32.1738 7.53421 32.0289 10.1286 31.901 12.7409C31.1748 12.8538 30.4486 12.9667 29.7224 13.0795C28.89 13.206 28.057 13.3497 27.2247 13.4761C27.2415 11.0158 27.2414 8.53758 27.2583 6.07728C27.2651 5.88689 27.2548 5.67857 27.2616 5.48817C26.4172 5.4582 25.4113 5.50915 24.2944 5.71213C23.7448 5.81393 23.2473 5.93491 22.7843 6.07445C22.5167 9.14974 22.249 12.225 21.9813 15.3003C21.9221 15.9741 21.8636 16.6306 21.8045 17.3043C21.8057 17.2697 21.7899 17.2172 21.7912 17.1826C21.7423 16.5743 21.6928 15.9833 21.6616 15.3756C21.4704 12.8213 21.2616 10.2663 21.0705 7.71198C21.0596 7.52097 21.0494 7.31264 21.021 7.121C19.7136 7.23056 18.2606 7.4736 16.7123 7.92122C16.3028 8.04533 15.9108 8.17006 15.5365 8.29541C15.6902 10.4152 15.8937 12.6233 16.182 14.9212C16.2648 15.5653 16.3483 16.1922 16.4317 16.819C16.5732 17.7945 16.716 18.7354 16.8587 19.6763C16.182 18.8898 15.5048 18.1206 14.8281 17.334C14.4219 16.869 14.0156 16.404 13.6264 15.9569C13.4742 15.7782 13.322 15.5995 13.1522 15.4202C12.7245 15.561 12.3149 15.6851 11.8872 15.8259C11.7849 16.7234 11.6832 17.6036 11.5809 18.5012C11.4548 19.5712 11.3282 20.6585 11.2197 21.7291C10.8816 20.8333 10.5429 19.9547 10.1878 19.041C9.5891 17.5466 8.97343 16.0344 8.34079 14.5042C8.04809 13.8179 7.75539 13.1316 7.46269 12.4454C7.3324 12.1461 7.2021 11.8469 7.07181 11.5477C6.24659 11.969 5.38558 12.4063 4.52334 12.8783C3.71326 13.3694 2.95841 13.7932 2.20356 14.217C3.26434 16.0917 4.30507 18.035 5.35909 20.1C5.50759 20.3826 5.65547 20.6824 5.80397 20.965C6.83979 23.0467 7.80707 25.074 8.68824 27.0463C8.86662 26.9833 9.02802 26.9024 9.2064 26.8394C9.90356 26.5522 10.6183 26.2656 11.3155 25.9784C11.9228 25.74 12.5132 25.4837 13.1205 25.2453C13.4184 23.8001 13.7163 22.355 14.0142 20.9098C14.9449 21.9827 15.8581 23.0549 16.7888 24.1277C17.7899 23.7127 18.913 23.3366 20.1227 22.9983C20.5499 22.8748 20.9764 22.7686 21.4023 22.6798C21.5837 22.5303 21.7828 22.3813 21.9642 22.2318C22.1238 22.2028 22.284 22.1565 22.4435 22.1275C24.041 21.7856 25.6384 21.4437 27.2182 21.1012C27.2025 19.5583 27.2038 18.0332 27.2057 16.4909C28.7643 16.2516 30.3235 15.995 31.8644 15.7551C31.8631 17.2801 31.8794 18.8058 31.8788 20.3135C33.2043 20.1872 34.6342 20.0993 36.1666 20.1017C36.7477 20.105 37.2931 20.1244 37.8384 20.1437C37.811 20.4201 37.783 20.7137 37.7556 20.99C37.8611 20.9937 37.9667 20.9975 38.0546 21.0006C38.3185 21.01 38.6 21.02 38.8639 21.0293C39.7793 21.0445 40.6425 21.0405 41.4718 21.0006C41.8517 20.7195 42.3791 20.2529 42.7222 19.5199C43.5231 17.798 42.9412 15.3338 41.2667 14.3731C40.9386 14.1882 40.3145 13.9061 39.3445 13.941C39.4568 13.7543 39.7184 13.3304 40.1717 12.9652C40.4078 12.7656 40.7136 12.5858 41.0704 12.4598C42.1049 12.098 43.2956 12.2962 44.2399 12.9883C44.3769 13.0971 44.514 13.206 44.6504 13.3321C44.7778 13.2153 44.9223 13.1165 45.0491 13.017C46.0965 12.2916 47.3856 12.1988 48.282 12.7505C48.4888 12.8791 48.6598 13.0239 48.795 13.1846C49.2019 13.6323 49.3418 14.1572 49.4054 14.3501C49.4054 14.3501 49.3878 14.3495 49.3702 14.3488C49.0196 14.3017 48.5276 14.2669 47.9925 14.4559C46.2269 15.0691 45.1144 17.6292 45.9113 19.4945C46.0737 19.8815 46.3089 20.2018 46.5642 20.4535C46.8358 20.7404 47.1457 20.942 47.4041 21.1072C48.6349 21.1682 49.8827 21.2471 51.1136 21.3082C51.087 21.0646 51.0604 20.821 51.0338 20.5775C53.2989 20.7792 55.581 20.9988 57.88 21.2364C58.5643 21.3127 59.2486 21.389 59.9158 21.4473C59.8526 21.7397 59.79 22.0147 59.7444 22.3077C61.6376 22.5656 63.5308 22.8234 65.4246 23.0639C65.4909 22.685 65.5396 22.3055 65.6059 21.9266C67.7392 22.3662 69.8556 22.788 71.9889 23.2276C73.2828 23.4988 74.5772 23.7527 75.8711 24.024C76.0139 23.4745 76.1737 22.9429 76.3158 22.4107C77.3836 23.5924 78.3751 24.4421 79.1647 25.0247C80.3824 25.9518 81.1544 26.5338 82.3766 26.8371C83.11 27.0191 84.96 27.5007 86.6706 26.4523C88.1293 25.5509 88.9266 23.9328 88.9285 22.3905C88.9025 22.1296 88.8602 21.8335 88.765 21.5355ZM85.5151 17.8154C85.3951 17.7245 85.2932 17.6169 85.1731 17.526C83.7881 16.3504 82.8868 15.9371 82.8502 14.9827C82.8094 14.1494 83.411 13.0789 84.3174 12.8511C84.3708 12.8357 84.9041 12.6987 85.319 12.9213C86.1644 13.4193 86.1829 15.3782 85.5151 17.8154Z" fill="#73B8D5"/>
<path d="M10.1859 19.0929C8.9354 19.5858 7.73706 20.0978 6.5915 20.6117C6.32331 20.7235 6.05452 20.8526 5.78633 20.9644C5.63783 20.6819 5.48995 20.382 5.34145 20.0994C4.322 18.0529 3.26429 16.0917 2.20351 14.2171C2.94077 13.7927 3.71382 13.3522 4.50385 12.9296C5.3661 12.4577 6.22711 12.0203 7.05233 11.599C7.18262 11.8983 7.31291 12.1975 7.44321 12.4967C7.7359 13.183 8.02922 13.852 8.3213 14.5555C8.97154 16.0864 9.58721 17.5986 10.1859 19.0929Z" fill="#B8EAF7"/>
<path d="M13.1497 15.4893C13.7082 16.133 14.2666 16.7768 14.8256 17.4032C13.7026 17.7792 12.6147 18.1565 11.579 18.553C11.6807 17.6728 11.783 16.7752 11.8853 15.8777C12.3125 15.7542 12.7402 15.6134 13.1497 15.4893Z" fill="#B8EAF7"/>
<path d="M21.019 7.17304C21.221 9.9184 21.44 12.6817 21.6596 15.4277C19.8474 15.8659 18.1037 16.3586 16.4467 16.889C16.3633 16.2621 16.2799 15.6353 16.197 14.9911C15.9087 12.6933 15.7052 10.4851 15.5515 8.36539C15.9258 8.24004 16.3184 8.098 16.7273 7.9912C18.2763 7.52627 19.7293 7.28323 21.019 7.17304Z" fill="#B8EAF7"/>
<path d="M37.6317 13.0656C35.7614 13.1552 34.4892 13.266 33.8704 13.3307C29.7342 13.7385 25.8878 14.4164 22.2991 15.2769C22.1924 15.3078 22.0862 15.3213 21.9794 15.3522C22.2471 12.2769 22.5148 9.20162 22.7825 6.12633C23.2454 5.98679 23.7429 5.86581 24.2926 5.76401C25.4095 5.56103 26.4153 5.51008 27.2597 5.54006C27.253 5.73045 27.2632 5.93877 27.2564 6.12917C27.2395 8.58947 27.2397 11.0677 27.2228 13.528C28.0558 13.3843 28.8881 13.2578 29.7205 13.1314C30.4467 13.0185 31.1729 12.9057 31.8991 12.7928C32.0197 10.3882 32.1402 7.98356 32.2602 5.59624C32.267 5.40585 32.2743 5.19814 32.2987 5.00838C32.9703 4.94556 33.6758 4.91861 34.4335 4.91085C35.4029 4.89327 36.2995 4.94242 37.1251 5.00639C37.1359 5.19741 37.1468 5.38842 37.1576 5.57944C37.2984 8.06267 37.4738 10.5645 37.6317 13.0656Z" fill="#B8EAF7"/>
<path d="M49.7431 13.2703C49.427 13.2417 49.1104 13.2305 48.7943 13.202C48.6591 13.0412 48.4881 12.8965 48.2813 12.7678C47.385 12.2161 46.0958 12.309 45.0484 13.0343C44.9216 13.1338 44.7766 13.25 44.6497 13.3495C44.5127 13.2406 44.3762 13.1145 44.2392 13.0056C43.2943 12.3309 42.1042 12.1153 41.0697 12.4772C40.713 12.6032 40.4071 12.7829 40.1711 12.9825C39.7834 12.9861 39.4134 12.9903 39.0427 13.0118C39.8237 9.86807 40.8016 7.12994 41.7799 4.87707C42.4514 4.81425 43.1922 4.78856 43.9844 4.79935C45.1467 4.80594 46.2174 4.91327 47.1461 5.05022C47.663 6.36833 48.1422 7.75444 48.6014 9.20915C49.0448 10.6113 49.4197 11.959 49.7431 13.2703Z" fill="#B8EAF7"/>
<path d="M56.4249 5.657C56.4136 6.47112 56.3841 7.30193 56.3364 8.14942C56.2306 10.1386 56.0047 12.037 55.7303 13.8122C54.8004 13.7099 53.905 13.6261 53.0448 13.5436C52.2896 13.4821 51.5526 13.404 50.8319 13.3611C50.8593 13.0848 50.8861 12.8258 50.9136 12.5495C51.161 10.0453 51.3532 7.6086 51.4895 5.25652C53.1407 5.38445 54.7913 5.52969 56.4249 5.657Z" fill="#B8EAF7"/>
<path d="M71.4356 11.0249C71.3299 11.5237 71.2247 12.0052 71.1189 12.5041C72.5353 12.797 74.5637 13.2156 75.6477 13.4447C75.4531 14.4603 75.0719 16.2664 74.8767 17.2993C70.1285 16.0909 65.7374 15.2419 61.7788 14.6161C61.6387 14.5938 61.4985 14.5715 61.3408 14.5486C61.874 11.9333 62.4072 9.31802 62.9793 6.60014C64.1907 6.71246 65.4536 6.86127 66.7499 7.06326C67.1527 7.12955 67.5555 7.19583 67.9401 7.27881C67.9157 7.46857 67.8738 7.65772 67.8494 7.84749C67.625 9.20861 67.4187 10.5531 67.2131 11.8802L68.2168 6.92469C68.2612 6.66632 68.3232 6.40856 68.367 6.16749C69.9278 6.36154 71.5741 6.62794 73.3235 6.96732C75.5272 7.40947 77.5513 7.94924 79.3813 8.49944C78.9985 9.85495 78.6163 11.1931 78.2336 12.5486C77.0829 12.2132 75.8437 11.8919 74.5329 11.6028C73.4495 11.3563 72.4165 11.181 71.4356 11.0249Z" fill="#B8EAF7"/>
<path d="M86.0112 18.2317C86.7476 18.3272 87.5023 18.406 88.2387 18.5014C89.7605 16.3198 91.2823 14.1382 92.8041 11.9567C91.9732 11.5459 91.0355 11.166 89.9722 10.851C89.8849 10.8305 89.8151 10.8107 89.7454 10.7909C89.6235 10.7519 89.5009 10.7303 89.379 10.6913C88.9437 11.5423 88.4901 12.4101 88.0548 13.2611C87.9488 12.7721 87.7296 12.0018 87.1573 11.2536C86.6522 10.5945 85.8821 9.96059 84.9614 9.59864C84.2323 9.29548 83.391 9.17896 82.5216 9.35606C80.3041 9.79726 79.1366 11.9221 78.8872 13.4903C78.5234 15.7996 80.0233 17.7072 80.2598 17.9929C80.5636 18.3676 80.9377 18.7448 81.3476 19.106C81.3822 19.1246 81.4174 19.1258 81.4519 19.1444C83.8224 19.8524 86.2771 20.6674 88.7997 21.5541C88.3671 20.343 87.2246 19.2799 86.0112 18.2317ZM82.8497 15C82.8088 14.1667 83.4104 13.0963 84.3169 12.8685C84.3702 12.8531 84.9035 12.716 85.3184 12.9387C85.3705 12.9579 85.4045 12.9938 85.4561 13.0303C85.5755 13.1385 85.6937 13.2813 85.7756 13.4575C86.1683 14.3033 86.0584 15.9111 85.5328 17.8161C85.4127 17.7252 85.3108 17.6176 85.1908 17.5267C83.8051 16.3684 82.8862 15.9545 82.8497 15Z" fill="#B8EAF7"/>
<path d="M9.18815 26.8562C9.00977 26.9191 8.84837 27.0001 8.66999 27.063C7.78882 25.0908 6.83912 23.0641 5.78572 20.9817C5.63722 20.6992 5.48933 20.3993 5.34083 20.1168C4.322 18.0529 3.26429 16.0917 2.20351 14.2171C2.94077 13.7927 3.71382 13.3522 4.50385 12.9296C5.3661 12.4577 6.22711 12.0203 7.05232 11.599C7.11716 11.7573 7.18262 11.8983 7.24746 12.0565C7.27957 12.1443 7.3123 12.2148 7.34441 12.3026C6.71639 12.6269 6.07079 12.9506 5.44277 13.2749C4.72495 13.648 4.00714 14.0211 3.30691 14.3949C4.32882 16.3722 5.34826 18.4187 6.36403 20.569C7.39738 22.72 8.32703 24.8153 9.18815 26.8562Z" fill="#F0FCFF"/>
<path d="M13.6245 16.009C13.2149 16.1331 12.8054 16.2572 12.4135 16.382C12.1104 18.4682 11.808 20.5371 11.505 22.6233C11.4092 22.3426 11.3135 22.0619 11.236 21.7645C11.3621 20.6945 11.4887 19.6072 11.5972 18.5366C11.6989 17.6564 11.8012 16.7588 11.9035 15.8613C12.3313 15.7205 12.7408 15.5964 13.1685 15.4556C13.3195 15.6689 13.4723 15.8303 13.6245 16.009Z" fill="#F0FCFF"/>
<path d="M18.4968 8.262C17.7147 8.45953 16.9848 8.67625 16.3247 8.91277C16.438 10.6845 16.6028 12.4927 16.8003 14.3714C17.0655 16.8243 17.369 19.192 17.7113 21.4571C17.4319 20.8926 17.1531 20.3108 16.8737 19.7463C16.7128 18.8221 16.5707 17.8639 16.4467 16.889C16.3633 16.2622 16.2799 15.6353 16.197 14.9912C15.9087 12.6933 15.7052 10.4852 15.5515 8.36542C15.9259 8.24006 16.3184 8.09802 16.7273 7.99123C18.2757 7.54361 19.7287 7.30057 21.036 7.191C21.0469 7.38202 21.0571 7.59034 21.0855 7.78199C20.272 7.87442 19.4032 8.03422 18.4968 8.262Z" fill="#F0FCFF"/>
<path d="M27.2394 6.11124C26.7292 6.09313 26.1475 6.10714 25.5117 6.15389C24.6278 6.24383 23.8646 6.40737 23.2421 6.57591C22.9893 8.73322 22.5881 12.0984 22.2997 15.2596C22.2393 15.968 22.1771 16.7283 22.1088 17.6617C21.9878 19.5811 21.9495 21.1568 21.9284 22.2478C21.8015 22.3473 21.6929 22.4301 21.5661 22.5296C21.6451 20.7994 21.7241 19.0692 21.8032 17.3389C21.8623 16.6651 21.9208 16.0087 21.98 15.3349C22.2477 12.2596 22.5154 9.18432 22.783 6.10903C23.246 5.96949 23.7435 5.84851 24.2931 5.7467C25.41 5.54373 26.4159 5.49278 27.2603 5.52275C27.2529 5.73045 27.2462 5.92085 27.2394 6.11124Z" fill="#F0FCFF"/>
<path d="M27.2058 13.5102C27.1833 13.648 27.1426 13.8026 27.1201 13.9404C28.6792 13.6838 30.2378 13.4445 31.7969 13.1879C31.8195 13.0501 31.8596 12.9129 31.8821 12.775C30.3229 13.0316 28.7643 13.2709 27.2058 13.5102Z" fill="#F0FCFF"/>
<path d="M37.1406 5.56151C36.4206 5.50129 35.6641 5.47444 34.836 5.47971C33.9024 5.48123 33.038 5.51986 32.2426 5.59561C32.2494 5.40522 32.2567 5.19752 32.2811 5.00775C32.9527 4.94494 33.6582 4.91799 34.4159 4.91022C35.3853 4.89264 36.2819 4.9418 37.1075 5.00576C37.1196 5.16216 37.1298 5.37049 37.1406 5.56151Z" fill="#F0FCFF"/>
<path d="M47.3878 5.68266C46.6872 5.57114 45.9332 5.47506 45.0893 5.42778C43.9641 5.3705 42.9419 5.38621 42.041 5.45822C40.9862 7.88167 39.9129 10.8244 39.1222 14.245C38.5411 16.72 38.2137 18.996 38.0181 21.034C37.9125 21.0302 37.807 21.0265 37.719 21.0234C37.7464 20.7471 37.7739 20.4707 37.8019 20.1771C37.8573 19.6072 37.9304 19.0379 37.9859 18.468C37.9852 18.4853 37.984 18.5199 37.9834 18.5372C38.1788 17.0017 38.4659 15.3655 38.8792 13.6472C38.9217 13.4407 38.9819 13.2349 39.025 13.0111C39.806 9.86742 40.7839 7.12929 41.7622 4.87642C42.4338 4.81361 43.1745 4.78791 43.9667 4.7987C45.1291 4.8053 46.1997 4.91262 47.1284 5.04957C47.2266 5.26102 47.3072 5.47184 47.3878 5.68266Z" fill="#F0FCFF"/>
<path d="M49.5495 14.7539C49.2705 14.6747 48.8853 14.6091 48.4242 14.6967C46.9354 14.9558 46.2789 16.5788 46.1441 16.9033C45.4833 18.6476 46.4132 20.2403 46.5629 20.4882C46.3083 20.2192 46.0724 19.9163 45.91 19.5292C45.0955 17.6633 46.2256 15.1039 47.9912 14.4907C48.5081 14.3184 49.0007 14.3359 49.3689 14.3836C49.3865 14.3842 49.4041 14.3849 49.4041 14.3849C49.4526 14.5079 49.5011 14.6309 49.5495 14.7539Z" fill="#F0FCFF"/>
<path d="M56.4222 6.22866C54.9645 6.1076 53.5244 5.98716 52.0661 5.8834C51.8933 8.26885 51.6095 10.8063 51.1976 13.4779C50.8307 15.8738 50.3978 18.146 49.9182 20.2433C49.883 20.242 49.961 19.5343 50.4768 16.4158C50.478 16.3812 50.4793 16.3466 50.4811 16.2946C50.6035 15.3285 50.7089 14.3444 50.8149 13.343C50.8423 13.0667 50.8691 12.8077 50.8965 12.5314C51.1439 10.0273 51.3361 7.59052 51.4725 5.23844C53.123 5.38368 54.7567 5.51099 56.4073 5.65623C56.4036 5.76008 56.4005 5.84662 56.3968 5.95048C56.4289 6.03827 56.4259 6.12481 56.4222 6.22866Z" fill="#F0FCFF"/>
<path d="M67.9576 7.27935C67.9332 7.46912 67.8913 7.65826 67.8669 7.84803C67.5691 7.8028 67.2718 7.74026 66.974 7.69503C66.5191 7.60956 66.1509 7.56183 66.0811 7.54202C65.3107 7.41069 64.2407 7.28606 63.4861 7.20728C62.7869 10.5272 62.2053 13.0195 61.7957 14.634C61.7537 14.8231 61.5702 15.5271 61.3253 16.4716C60.8762 18.206 60.412 19.8706 59.9315 21.4999C60.2312 20.0028 60.5485 18.5063 60.8483 17.0092C61.0179 16.2007 61.1881 15.3749 61.3577 14.5664C61.8909 11.9511 62.4241 9.33587 62.9962 6.618C64.2076 6.73032 65.4705 6.87913 66.7668 7.08111C67.1702 7.13009 67.573 7.19638 67.9576 7.27935Z" fill="#F0FCFF"/>
<path d="M79.3812 8.49944C79.3411 8.63666 79.3004 8.79119 79.2603 8.9284C77.8664 8.49766 76.3306 8.09654 74.705 7.74422C72.6602 7.29038 70.7507 6.9973 68.997 6.77908C68.6183 8.516 68.2213 10.2696 67.8068 12.0226C67.1237 14.8925 66.4248 17.7098 65.7102 20.4746C66.218 17.5812 66.7434 14.6883 67.2688 11.7955C67.2901 11.6923 67.3114 11.5891 67.3327 11.4858L68.252 6.92594C68.2964 6.66756 68.3584 6.40981 68.4021 6.16874C69.9629 6.36278 71.6092 6.62918 73.3586 6.96856C75.5271 7.40947 77.5519 7.93193 79.3812 8.49944Z" fill="#F0FCFF"/>
<path d="M75.6646 13.4626C75.6433 13.5658 75.622 13.6691 75.6007 13.7723C74.0442 13.4571 72.4878 13.1419 70.9313 12.8267C70.9877 12.7247 71.0618 12.6234 71.1182 12.5214C72.5522 12.8149 74.5806 13.2335 75.6646 13.4626Z" fill="#F0FCFF"/>
<path d="M61.0273 16.929C61.0054 17.0495 60.9829 17.1874 60.961 17.3079C60.3477 17.2168 59.7168 17.1251 59.0854 17.0507C57.7351 16.8815 56.4181 16.7654 55.1533 16.6685C55.1922 16.5659 55.2135 16.4627 55.2517 16.3774C56.8684 16.4868 58.5529 16.6679 60.3054 16.9207C60.4983 16.9449 60.6736 16.9684 60.8483 17.0093C60.8495 16.9747 60.8689 16.9234 60.8702 16.8888C60.9229 16.8906 60.9751 16.9098 61.0273 16.929Z" fill="#F0FCFF"/>
<path d="M89.7277 10.7903C89.0896 11.8941 88.4333 13.0146 87.7952 14.1184C87.8548 13.9299 87.9149 13.7241 87.9568 13.5349C87.9775 13.449 87.9982 13.3631 88.0188 13.2772C88.4542 12.4261 88.9077 11.5584 89.3431 10.7073C89.4832 10.7296 89.6057 10.7513 89.7277 10.7903Z" fill="#F0FCFF"/>
<path d="M84.926 9.59741C84.4359 9.51069 83.2773 9.40025 82.0759 9.99882C80.2653 10.8877 79.7421 12.7235 79.6212 13.1525C79.058 15.1254 79.7886 17.3697 81.4348 19.1265C81.4002 19.1079 81.3651 19.1066 81.3305 19.0881C80.9382 18.7276 80.564 18.3503 80.2427 17.975C80.0062 17.6893 78.5238 15.7824 78.8701 13.4724C79.1195 11.9042 80.287 9.77935 82.5045 9.33815C83.3556 9.17773 84.1964 9.31156 84.926 9.59741Z" fill="#F0FCFF"/>
<path d="M78.1937 18.63C77.3646 19.6577 76.5172 20.7021 75.6875 21.7471C76.0803 21.1025 76.4737 20.4406 76.8489 19.7954C77.2003 19.3226 77.5694 18.8504 77.9208 18.3777C77.99 18.4148 78.0924 18.5051 78.1937 18.63Z" fill="#F0FCFF"/>
<path d="M85.7478 18.205C85.6253 18.1833 85.5198 18.1796 85.3972 18.1579C85.4361 18.0553 85.4756 17.9354 85.5145 17.8328C86.04 15.9278 86.1324 14.3193 85.7572 13.4742C85.8069 13.5626 85.8566 13.651 85.9057 13.7567C86.1178 14.2322 86.1377 14.6661 86.1248 15.0296C86.0969 16.311 85.833 17.7921 85.7478 18.205Z" fill="#F0FCFF"/>
<path d="M6.39917 27.5195C7.40963 29.3231 8.33604 30.5171 8.66169 30.7713C9.08982 31.1158 9.54414 31.2185 9.54414 31.2185C9.57933 31.2198 9.59631 31.2377 9.6139 31.2383C9.6139 31.2383 9.85896 31.2817 10.1411 31.2744C10.4055 31.2664 11.7379 30.9498 13.501 30.4058C13.2794 30.6926 12.1559 32.0738 10.5113 32.258C10.2637 32.2839 9.73291 32.3517 9.10573 32.1561C8.96684 32.0992 8.75942 31.9879 8.53563 31.8413C8.53563 31.8413 8.20937 31.6044 7.90438 31.2643C7.49753 30.8166 6.87695 29.4428 6.39917 27.5195Z" fill="#233356"/>
<path d="M95.8309 11.5439C96.2158 12.1122 96.5492 12.6439 96.8317 13.1219C96.9972 13.4224 97.1966 13.7587 97.1291 14.1722C97.0872 14.3614 97.0113 14.5147 96.956 14.582C96.5268 15.26 95.9162 16.0875 95.6946 16.3743C96.5593 15.8331 97.1419 15.2992 97.5249 14.9315C97.7992 14.6466 98.0378 14.3778 98.0689 13.9976C98.0787 13.7207 97.9817 13.4746 97.7974 13.2081C97.264 12.3573 96.3494 11.8223 95.8309 11.5439Z" fill="#233356"/>
<path d="M46.2303 23.9077C46.3988 24.1217 46.7044 24.4445 47.1538 24.6857C47.6202 24.9449 48.0576 25.0297 48.3554 25.075C49.932 25.3215 52.572 25.3806 52.8183 25.3893C52.0181 25.6036 49.8861 26.1171 48.1494 25.9168C47.7812 25.8691 47.3432 25.8016 46.9673 25.4763C46.3499 25.0038 46.2544 24.2205 46.2303 23.9077Z" fill="#233356"/>
<path d="M30.1077 4.70535C30.1583 4.27389 30.3436 3.51794 30.9583 3.07184C31.3018 2.82408 31.6561 2.76733 33.0508 2.67819C33.6684 2.64812 34.4273 2.60574 35.327 2.56835C34.2649 2.21871 33.3538 2.08239 32.7217 2.02529C31.0007 1.87755 30.5625 2.31259 30.2895 2.56285C30.253 2.59622 30.2166 2.62958 30.1796 2.68026C29.6279 3.33656 29.9277 4.3177 30.1077 4.70535Z" fill="#233356"/>
<path d="M79.8701 29.469C80.3322 29.8493 80.9338 30.2693 81.6968 30.6083C83.6376 31.5091 85.4721 31.4355 86.427 31.3308C85.1958 32.2749 83.5668 32.5117 82.1779 31.9425C80.5287 31.2601 79.9495 29.7144 79.8701 29.469Z" fill="#233356"/>
</g>
<defs>
<clipPath id="clip0_81_1998">
<rect width="96.8709" height="31.0363" fill="white" transform="translate(1.61865 0.921143) rotate(2.0329)"/>
</clipPath>
</defs>
</svg>
