<svg width="92" height="83" viewBox="0 0 92 83" fill="none" xmlns="http://www.w3.org/2000/svg">
<g clip-path="url(#clip0_86_7483)">
<path d="M91.9999 41.0393C91.9999 43.3856 91.8089 45.7044 91.427 47.9409C91.236 49.0386 91.0177 50.1226 90.7449 51.1928C89.1488 57.5181 86.0794 63.2535 81.946 68.0146C81.7823 68.193 81.6322 68.3714 81.4685 68.5498C81.3594 68.6732 81.2502 68.7967 81.1411 68.9065C81.0183 69.0437 80.8955 69.1809 80.7591 69.3044C80.7318 69.3318 80.6909 69.373 80.6636 69.4142C80.5409 69.5377 80.4317 69.6612 80.309 69.7846C80.1998 69.9081 80.077 70.0179 79.9543 70.1414C79.6269 70.4707 79.2995 70.7863 78.9584 71.1019C78.6856 71.3625 78.4127 71.6095 78.1263 71.8565C77.8261 72.1172 77.526 72.3779 77.2123 72.6386C77.0622 72.7621 76.8985 72.8993 76.7484 73.0228C76.6257 73.1188 76.5029 73.2149 76.3938 73.3109C76.3256 73.3658 76.2573 73.4207 76.1891 73.4756C76.0664 73.5716 75.9436 73.6677 75.8208 73.7637C75.6571 73.8872 75.507 74.0107 75.3433 74.1205C75.1796 74.2439 75.0159 74.3537 74.8522 74.4772C74.5385 74.6967 74.2247 74.9163 73.911 75.1358C73.6927 75.2867 73.4744 75.4239 73.2562 75.5611C73.147 75.6298 73.0515 75.6984 72.9424 75.767C72.7378 75.9042 72.5195 76.0277 72.3149 76.1649C72.2057 76.2335 72.1103 76.2884 72.0011 76.357C71.892 76.4256 71.7829 76.4805 71.6737 76.5491C71.5646 76.6177 71.4554 76.6725 71.3463 76.7411C71.2645 76.796 71.169 76.8372 71.0871 76.8921C71.0462 76.9195 70.9916 76.947 70.9507 76.9744C70.8689 77.0156 70.787 77.0704 70.6915 77.1116C70.5824 77.1665 70.4732 77.2351 70.3641 77.29C70.255 77.3449 70.1458 77.3997 70.0367 77.4684C69.7093 77.6467 69.3683 77.8114 69.0409 77.976C68.9317 78.0309 68.8226 78.0858 68.6998 78.1407C68.4679 78.2505 68.2496 78.3602 68.0177 78.4563C67.9086 78.5111 67.7995 78.5523 67.6767 78.6072C67.4448 78.717 67.2129 78.813 66.9946 78.9091C66.8855 78.9502 66.7763 79.0051 66.6672 79.0463C66.5035 79.1149 66.3398 79.1835 66.1761 79.2521C66.0124 79.3207 65.835 79.3893 65.6713 79.4442C65.3849 79.5539 65.0984 79.6637 64.8119 79.7598C64.6619 79.8146 64.4982 79.8695 64.3481 79.9244C64.3345 79.9244 64.3208 79.9244 64.3208 79.9381C64.1571 79.993 63.9934 80.0479 63.8161 80.1028C63.6933 80.1439 63.5705 80.1851 63.4477 80.2263C63.325 80.2674 63.2022 80.2949 63.0794 80.336C59.7372 81.3651 56.2176 81.9688 52.5753 82.0786C52.3433 82.0923 52.1114 82.0923 51.8795 82.0923C51.8113 82.0923 51.7431 82.0923 51.6613 82.0923C51.4976 82.0923 51.3339 82.0923 51.1702 82.0923C51.0065 82.0923 50.8564 82.0923 50.6927 82.0923C50.5972 82.0923 50.4881 82.0923 50.3926 82.0923C50.3107 82.0923 50.2425 82.0923 50.1607 82.0923C50.0788 82.0923 49.997 82.0923 49.9151 82.0923C49.6968 82.0923 49.4649 82.0786 49.2467 82.0649C49.1103 82.0649 48.9602 82.0512 48.8238 82.0374C48.6328 82.0237 48.4282 82.01 48.2372 81.9963C48.0598 81.9825 47.8689 81.9688 47.6915 81.9551C47.6779 81.9551 47.6779 81.9551 47.6642 81.9551C47.4732 81.9414 47.2959 81.9277 47.1049 81.9002C47.0913 81.9002 47.064 81.9002 47.0504 81.9002C46.9139 81.8865 46.7639 81.8728 46.6275 81.8591C46.5592 81.8591 46.491 81.8453 46.4092 81.8316C46.0954 81.7905 45.768 81.7493 45.4543 81.7081C45.3997 81.6944 45.3451 81.6944 45.2906 81.6807C45.1269 81.6532 44.9632 81.6395 44.8131 81.6121C44.6494 81.5846 44.4721 81.5572 44.3084 81.5298C44.2811 81.5298 44.2538 81.516 44.2265 81.516C44.0492 81.4886 43.8718 81.4474 43.6945 81.42C42.7532 81.2416 41.8392 81.0358 40.9252 80.8026C40.5978 80.7202 40.2704 80.6242 39.9566 80.5418C39.7247 80.4732 39.4928 80.4046 39.2473 80.336C39.1654 80.3086 39.0699 80.2812 38.9881 80.2537C38.7289 80.1714 38.4833 80.0891 38.2378 80.0067C38.1696 79.9793 38.1014 79.9656 38.0468 79.9381C37.7876 79.8558 37.5284 79.7598 37.2692 79.6637C37.2146 79.65 37.1601 79.6226 37.1192 79.6088C36.8463 79.5128 36.5871 79.403 36.3143 79.307C36.2734 79.2932 36.2461 79.2795 36.2052 79.2658C35.9187 79.156 35.6458 79.0463 35.373 78.9228H35.3594C34.6773 78.6346 34.0088 78.3328 33.354 78.0035C33.2858 77.9623 33.204 77.9349 33.1358 77.8937C32.9993 77.8251 32.8629 77.7565 32.7129 77.6879C32.6037 77.633 32.5082 77.5781 32.3991 77.5232C32.3173 77.4821 32.2218 77.4272 32.1263 77.386C30.0664 76.2884 28.1156 75.026 26.2876 73.5991C25.0598 72.6386 23.873 71.6095 22.7544 70.5256C21.8131 69.6063 20.9264 68.6458 20.0806 67.6442C19.6577 67.1502 19.2485 66.6425 18.8528 66.1212C18.58 65.7644 18.3072 65.4077 18.048 65.0372C16.6429 63.0888 15.4151 61.0032 14.3784 58.8079C14.1328 58.3002 13.9009 57.7925 13.6826 57.2712C13.2461 56.2695 12.8641 55.2405 12.5094 54.1977C12.3184 53.6214 12.1411 53.0451 11.9638 52.4551C11.7864 51.8102 11.6091 51.1653 11.459 50.5067C11.2544 49.656 11.0907 48.8053 10.9406 47.9409C10.7633 46.8844 10.6269 45.8142 10.5314 44.7302C10.4222 43.5365 10.3677 42.3291 10.3677 41.0942C10.3677 39.6672 10.4359 38.2539 10.5859 36.8681C10.7087 35.647 10.8861 34.4395 11.118 33.2458C11.118 33.2321 11.118 33.2321 11.118 33.2184C11.2407 32.546 11.3908 31.8874 11.5545 31.2288C12.6186 26.8656 14.392 22.7905 16.7247 19.0995C17.8434 17.3433 19.0848 15.6693 20.4489 14.0914C27.9383 5.43349 38.9335 0 51.1974 0C73.7336 0 91.9999 18.3723 91.9999 41.0393Z" fill="#BBEFFF"/>
<path d="M68.6726 76.0826C71.4555 75.2045 75.2343 73.5854 78.4128 70.608C79.6406 69.4554 80.5819 68.5636 81.1276 67.0542C81.6187 65.6959 81.455 64.7629 81.9733 61.4561C82.1234 60.5094 82.2598 59.7273 82.3689 59.2196C81.605 59.151 79.6815 59.0961 77.9081 60.3173C77.3351 60.7152 76.8986 61.1542 76.5712 61.5522C76.885 60.7701 77.2124 59.988 77.5261 59.2059C77.6625 58.8766 77.7853 58.5473 77.9217 58.2317C76.7622 58.2729 74.7296 58.4924 72.5742 59.6175C68.4134 61.7991 66.8174 65.7782 66.2444 67.2189C65.3031 69.5652 65.0985 71.6919 65.0712 73.1189C64.4437 72.8994 63.7343 72.5975 63.0113 72.131C60.8013 70.7315 59.6964 68.7556 59.2053 67.6854C57.8411 68.1794 56.4496 68.6459 55.0036 69.0849C45.2907 72.0487 36.0961 73.0503 27.9929 73.0503C29.6436 74.4361 32.2082 76.3296 35.6459 77.9487C38.8518 79.458 46.5593 82.4766 56.2041 80.8438C61.5244 79.9382 65.726 77.9212 68.6726 76.0826Z" fill="#7DBEF3"/>
<path d="M67.0491 51.8516C66.7217 52.5788 66.3943 53.306 66.0669 54.0332C65.0847 56.2285 64.1298 58.4102 63.2021 60.5781C64.7164 59.8646 66.6535 58.8081 68.7543 57.2988C71.51 55.3092 71.6327 54.6232 71.5918 54.2665C71.4827 53.1413 69.5865 52.2357 67.0491 51.8516Z" fill="#7DBEF3"/>
<path d="M9.82199 61.3462C9.67193 61.4285 7.21641 63.0064 7.42104 65.2155C7.43468 65.2978 7.51653 66.0799 8.00764 66.7111C9.19447 68.2204 12.3321 68.2615 15.7834 66.9032C13.7917 65.0646 11.8137 63.1985 9.82199 61.3462Z" fill="#7DBEF3"/>
<path d="M21.0627 37.9933C30.6938 40.2847 40.3249 42.5898 49.9696 44.8812C55.399 42.9054 60.8148 40.9296 66.2442 38.9675C66.3943 36.4154 66.3124 31.9149 64.2798 26.9068C63.1203 24.0391 60.8012 18.3175 54.6215 14.9284C47.8142 11.1963 41.0343 12.8428 39.0153 13.4328C32.2626 15.3949 28.5794 20.1149 27.4744 21.6516C27.8427 23.0786 28.3338 25.8777 27.4744 29.157C26.0829 34.4807 22.1541 37.2661 21.0627 37.9933Z" fill="#7DBEF3"/>
<path d="M20.2035 29.3629C22.618 25.7817 21.7859 19.964 18.7983 18.3587C17.707 17.7687 16.5884 17.8922 15.7699 17.9882C12.9188 18.3038 10.1495 20.362 9.03085 23.3257C8.17142 25.6171 7.91223 29.4452 10.3541 31.4622C12.3867 33.1361 15.1014 32.5873 15.6062 32.4913C18.4027 31.915 19.9033 29.8157 20.2035 29.3629Z" fill="white"/>
<path d="M19.4531 16.8494C20.2443 16.822 21.4857 16.8906 22.8363 17.4669C25.7283 18.7017 26.9152 21.3224 27.2016 22.0085C28.102 20.7873 29.5617 19.0448 31.7034 17.3571C33.586 15.8752 38.2105 12.3352 44.895 12.2803C49.4513 12.2392 52.8208 13.8445 53.9668 14.4483C59.6008 17.3708 62.0836 22.2143 62.8339 23.8745C63.0112 22.722 63.134 20.9245 62.6293 18.8801C61.7426 15.2029 59.4235 12.9938 58.0866 11.7452C53.121 7.12128 46.9822 6.53128 44.5812 6.28431C38.9472 5.73547 34.7319 7.14872 31.758 8.13663C28.0474 9.37151 23.0136 11.1278 20.0124 15.8752C19.7669 16.2594 19.5895 16.6024 19.4531 16.8494Z" fill="white"/>
<path d="M75.1113 21.981C76.8216 21.981 78.208 20.5865 78.208 18.8664C78.208 17.1462 76.8216 15.7517 75.1113 15.7517C73.4011 15.7517 72.0146 17.1462 72.0146 18.8664C72.0146 20.5865 73.4011 21.981 75.1113 21.981Z" fill="white"/>
<path d="M81.0183 30.0213C82.2388 30.0213 83.2283 29.0261 83.2283 27.7985C83.2283 26.5709 82.2388 25.5757 81.0183 25.5757C79.7978 25.5757 78.8083 26.5709 78.8083 27.7985C78.8083 29.0261 79.7978 30.0213 81.0183 30.0213Z" fill="white"/>
<path d="M55.44 43.1934C54.5533 42.1781 53.6393 41.5881 52.93 41.245C48.2372 38.9262 42.9306 42.3976 42.4395 42.7406C45.086 43.4129 47.7325 44.0853 50.3653 44.7576C52.0569 44.2225 53.7485 43.7011 55.44 43.1934Z" fill="#BAEBFE"/>
<path d="M42.4939 72.7208C45.2632 74.5869 47.8005 75.6297 49.6149 76.2197C49.6149 76.2197 57.0633 78.6757 61.8379 76.4255C62.7928 75.9727 63.1611 75.4376 63.3248 75.122C63.9114 73.9969 63.4476 72.7208 63.2703 72.2955C62.4654 71.7878 61.3195 70.9371 60.2964 69.5925C59.6416 68.7281 59.205 67.8911 58.9186 67.2188C57.3498 68.1381 55.5354 69.0711 53.4755 69.9218C49.3148 71.5957 45.5087 72.3641 42.4939 72.7208Z" fill="#BAEBFE"/>
<path d="M32.7263 16.6162C34.3906 15.8753 39.5199 13.8583 45.8224 15.4088C47.2684 15.7655 51.4428 16.9592 54.9351 20.4581C62.7655 28.279 60.0507 40.4495 59.8325 41.3139C61.8378 40.5867 63.8432 39.8595 65.8485 39.1323C66.1213 36.6625 66.3805 31.0369 63.4203 25.0134C62.3426 22.8044 59.3141 16.6299 52.425 13.8446C42.7394 9.92041 33.5857 16.0125 32.7263 16.6162Z" fill="#4882C2"/>
<path d="M66.8717 51.2478C66.2987 53.0864 65.6303 55.0073 64.839 56.9969C64.3616 58.2043 63.8705 59.3706 63.3657 60.482C66.135 58.6983 68.2768 57.0792 69.8046 55.8306C70.5959 55.1857 71.278 54.5957 71.237 53.8822C71.1415 52.2494 67.3764 51.3576 66.8717 51.2478Z" fill="#4882C2"/>
<path d="M58.4274 67.4521C59.3551 68.7282 60.651 70.2512 62.4381 71.7331C63.6386 72.721 64.7981 73.4894 65.8213 74.0794C65.5757 74.1617 65.2347 74.2852 64.8118 74.3675C62.4381 74.834 60.4464 73.8461 59.4778 73.3796C57.2679 72.2956 55.9583 70.6903 55.3035 69.7573C56.3266 68.9889 57.377 68.2205 58.4274 67.4521Z" fill="#4882C2"/>
<path d="M52.316 70.8826C51.3884 71.5823 50.3653 72.2821 49.2466 72.9407C43.7899 76.1514 38.3332 77.0982 34.3908 77.3314C32.4946 76.2612 30.5984 75.191 28.7021 74.1207C34.1725 73.5444 39.7929 72.8172 45.5497 71.9528C47.8279 71.6235 50.0924 71.2668 52.316 70.8826Z" fill="#4882C2"/>
<path d="M77.0758 60.7153C77.0621 61.9776 77.0485 63.24 77.0212 64.5297C76.9666 66.8897 76.8848 69.2223 76.7756 71.5C79.5586 70.32 80.609 68.8655 81.0319 67.7267C81.6048 66.19 81.141 65.0511 81.714 62.3755C82.0277 60.9211 82.4915 59.7686 82.8326 59.0139C82.0823 59.0962 81.2228 59.2472 80.2952 59.4941C79.0265 59.8235 77.9352 60.2762 77.0758 60.7153Z" fill="#4882C2"/>
<path d="M8.67603 62.5128C8.94886 63.24 9.41268 64.2142 10.1766 65.2295C10.7632 66.0116 11.3771 66.5879 11.8955 67.0133C12.6321 66.8486 13.3688 66.684 14.0918 66.5193C12.6321 64.8316 11.1725 63.144 9.7128 61.4563C9.37176 61.813 9.03071 62.1561 8.67603 62.5128Z" fill="#4882C2"/>
<path d="M55.0991 10.4967C53.2575 9.72836 50.3518 8.75417 46.7094 8.5072C38.7426 7.95836 32.9858 11.2514 31.8399 11.9374C28.0611 14.1877 25.6056 17.0005 24.1323 19.0723C24.9781 19.923 25.8103 20.76 26.656 21.6107C27.9657 19.9505 30.885 16.6712 35.796 14.613C37.7195 13.8035 43.0807 11.8688 49.6424 13.4467C57.923 15.4225 62.2337 21.5558 63.216 23.0514C62.9295 20.9246 62.4247 19.237 61.9882 18.0432C61.0333 15.4225 59.6691 11.6218 56.5997 10.7025C55.9995 10.5242 55.4538 10.4967 55.0991 10.4967Z" fill="#C6D4E1"/>
<path d="M8.98984 26.7559C9.97205 27.785 10.8997 28.128 11.5136 28.2652C14.5148 28.9101 18.2935 26.2345 20.5853 21.4048C20.8991 22.2418 21.6358 24.6018 20.79 27.3048C20.599 27.9085 19.3439 31.915 15.7152 32.6971C13.8872 33.0813 11.1998 32.6971 9.78106 30.639C8.71701 29.0611 8.90799 27.3048 8.98984 26.7559Z" fill="#C6D4E1"/>
<path d="M17.2157 17.1649C18.0342 16.9865 20.0941 16.6572 22.4405 17.5902C22.9179 17.7823 25.7009 18.9349 27.2015 21.9946C28.4156 24.4918 28.0745 26.7832 27.8153 28.4572C27.5698 30.1037 27.1878 32.6146 25.1552 34.7688C21.9221 38.2128 17.3112 37.7874 16.711 37.7325C15.6742 37.6228 13.5734 37.4032 11.7999 35.7018C10.463 34.4258 9.95829 32.9302 9.75366 32.1756C10.313 32.5049 12.5093 33.6986 15.1831 33.0537C17.3658 32.5323 18.6072 31.0779 19.2756 30.3095C19.8758 29.6097 21.8948 27.2635 21.6629 23.9293C21.3764 19.6209 17.5431 17.3569 17.2157 17.1649Z" fill="#FEE77F"/>
<path d="M61.3469 65.8331C61.6197 64.2552 61.8789 62.6773 62.1518 61.0857C63.0112 60.0429 63.9797 58.6982 64.8392 57.0243C66.1761 54.4447 66.8036 52.0573 67.1174 50.301C66.4216 49.5601 65.7259 48.8191 65.0302 48.0782C65.5349 47.694 66.8036 46.6375 67.3493 44.7989C68.2633 41.7254 66.3671 39.1871 66.1488 38.8989C60.6239 40.861 55.0853 42.8231 49.5604 44.7852C39.8202 42.4664 30.08 40.1475 20.3398 37.815C19.1393 37.9659 17.5705 38.0071 15.8107 37.7052C11.8546 37.0329 9.13989 35.0022 7.83028 33.8496C7.13455 34.371 6.42518 34.8787 5.72945 35.4001C5.59303 37.1289 5.59303 39.2419 5.96136 41.6157C6.65709 46.1847 8.38959 49.6561 9.71284 51.8103C10.0948 51.8926 10.4768 51.975 10.8587 52.0436C11.459 53.8684 12.0592 55.7071 12.6595 57.5319C11.3908 58.2591 10.1357 59.0001 8.86705 59.7273C9.68556 61.1954 11.1316 63.3359 13.5052 65.2705C14.9649 66.4643 16.3973 67.2601 17.5705 67.7952C17.8433 67.7129 18.1025 67.6305 18.3754 67.5345C20.1351 69.1261 21.8949 70.7178 23.6547 72.3231C26.1921 72.8308 28.9886 73.215 32.0171 73.3247C44.9222 73.8324 55.29 69.2633 61.3469 65.8331Z" fill="#FFA4D5"/>
<path d="M22.3586 39.0358C21.8675 39.9414 21.2809 40.8882 20.5579 41.8212C16.7382 46.7333 11.4862 48.6405 8.56683 49.4088C8.22579 48.9561 7.88475 48.5033 7.5437 48.0505C9.07158 47.6251 13.014 46.2668 15.756 42.3975C16.8065 40.9019 17.4067 39.42 17.7477 38.2537C18.3207 38.1165 19.412 37.9244 20.6944 38.2812C21.4037 38.4733 21.963 38.7751 22.3586 39.0358Z" fill="#C34D81"/>
<path d="M13.7916 46.9941C14.7056 47.2685 15.6196 47.543 16.5336 47.8174C14.8284 49.2718 13.1232 50.7399 11.4043 52.1943C11.6771 53.2646 11.95 54.3211 12.2228 55.3776C13.7643 54.225 15.3058 53.0588 16.8474 51.9062C18.2525 51.179 19.6576 50.4518 21.0627 49.7246C25.5235 49.7109 29.9844 49.6971 34.4452 49.6697C34.8272 49.4913 35.2092 49.313 35.5911 49.1346C28.9203 47.8311 22.2358 46.5276 15.565 45.2241C14.9921 45.8141 14.3918 46.4041 13.7916 46.9941Z" fill="#C34D81"/>
<path d="M12.4819 58.1081C13.5596 59.5488 15.1421 61.3463 17.352 63.0614C18.989 64.3237 20.5578 65.2293 21.8811 65.8742C22.4541 65.9565 23.3271 66.0114 24.3093 65.737C25.6871 65.3665 26.5739 64.5707 27.0786 64.1042C31.0211 60.4956 33.5312 57.3123 34.186 57.7102C34.2269 57.7377 34.2542 57.7651 34.3087 57.8749C34.8953 59.247 32.7263 62.4302 31.976 63.473C34.5679 62.2381 37.4873 60.9484 37.7192 61.3463C37.9647 61.7716 35.1682 63.8435 34.8544 64.0767C32.9991 65.4488 30.148 67.1914 26.0691 68.4674C26.8603 69.3867 27.7607 70.3335 28.7702 71.2939C29.5341 72.0211 30.2844 72.6935 31.0074 73.2972C28.6883 73.009 26.3692 72.7209 24.0501 72.4328C22.8633 71.8291 21.4446 70.9646 19.9985 69.7298C19.1118 68.9751 18.3752 68.2067 17.7613 67.507C17.5294 67.4932 17.3111 67.4795 17.0792 67.4795C15.8924 66.2446 14.2281 64.1865 13.2049 61.2228C12.8366 60.084 12.6047 59.0274 12.4819 58.1081Z" fill="#C34D81"/>
<path d="M61.5924 40.655C61.7561 41.3547 61.9062 42.4661 61.6743 43.7971C61.5378 44.5929 61.2923 45.2515 61.0604 45.7454C52.9299 49.3403 48.9329 51.3436 49.0829 51.7415C49.2193 52.0845 52.3569 51.275 58.523 49.2992C58.2229 51.3847 57.9364 53.4978 57.6499 55.6245C57.4726 56.9417 57.2953 58.2589 57.1316 59.5624C53.5165 63.0887 52.7526 64.2001 52.9299 64.4333C53.1755 64.7489 55.3445 63.6238 55.9038 63.3357C56.354 63.1024 56.7223 62.8829 57.0088 62.7182C56.9815 63.5415 56.9815 64.3922 57.0088 65.2978C57.0361 65.9701 57.0633 66.615 57.1179 67.2324C58.4821 66.615 59.8326 66.0112 61.1968 65.3938C61.3741 63.8296 61.5378 62.2654 61.7152 60.6875C62.4382 60.2073 63.2021 59.5761 63.9115 58.7392C66.9809 55.1168 66.6398 50.4654 66.4898 49.0933C66.4898 48.2015 66.4898 47.3096 66.5034 46.4178C66.8035 45.8415 67.4583 44.4145 67.3083 42.5073C67.1719 40.5589 66.2852 39.2143 65.8895 38.6929C64.4572 39.3652 63.0248 40.0101 61.5924 40.655Z" fill="#C34D81"/>
<path d="M62.8477 23.8607C63.6389 25.274 64.512 27.1538 65.1395 29.4863C65.9307 32.3814 66.0672 34.9198 66.0262 36.7584C66.5719 36.6075 68.4408 36.0312 69.7504 34.1652C71.3465 31.9149 70.9645 29.4726 70.8827 29.0198C70.7599 27.6752 70.2279 23.9019 67.2131 20.6226C65.3578 18.6194 63.3252 17.604 62.0974 17.1238C62.3975 17.8922 62.6976 18.9075 62.8613 20.1149C63.0796 21.6242 62.9841 22.9277 62.8477 23.8607Z" fill="#D2A765"/>
<path d="M15.7154 32.6972C16.4384 33.2323 17.8571 34.1242 19.8352 34.3711C23.4502 34.8239 26.1104 32.7521 26.656 32.313C26.2468 33.0265 24.1187 36.5528 19.8352 37.527C18.8393 37.7602 15.4289 38.5286 12.5505 36.3195C10.4087 34.673 9.80848 32.3404 9.64478 31.5583C10.1086 31.9425 11.2545 32.807 12.9597 32.999C14.1738 33.15 15.1697 32.8893 15.7154 32.6972Z" fill="#D2A765"/>
<path d="M39.1382 31.9697C38.8108 31.8051 38.4152 31.9423 38.2515 32.2716L38.2378 32.3127C37.9241 32.9576 37.5012 33.479 36.9691 33.8495C36.4371 34.2199 35.8232 34.4257 35.2366 34.4257C34.6364 34.4395 34.0498 34.2337 33.5314 33.8632C33.013 33.4927 32.6038 32.9576 32.3173 32.3127L32.3037 32.2853C32.1809 32.0109 31.8944 31.8462 31.5943 31.8874C31.226 31.9423 30.9531 32.2853 31.0077 32.6557C31.1305 33.6299 31.6352 34.563 32.3992 35.249C33.1494 35.9488 34.1999 36.3604 35.2639 36.3467C36.328 36.3329 37.3375 35.9076 38.1014 35.2353C38.8653 34.563 39.3701 33.6299 39.5065 32.6557C39.5338 32.3813 39.3974 32.0932 39.1382 31.9697Z" fill="#223255"/>
<path d="M55.2763 32.3127L55.2626 32.2853C55.1399 32.0109 54.8534 31.8462 54.5533 31.8874C54.1849 31.9423 53.9121 32.2853 53.9667 32.6557C54.0895 33.6299 54.5942 34.563 55.3581 35.249C56.1084 35.9488 57.1589 36.3604 58.2229 36.3467C59.287 36.3329 60.2965 35.9076 61.0604 35.2353C61.8243 34.563 62.3291 33.6299 62.4655 32.6557C62.5064 32.3813 62.37 32.0932 62.0972 31.956C61.7698 31.7913 61.3742 31.9285 61.2105 32.2578L61.1968 32.299C60.8831 32.9439 60.4602 33.4653 59.9281 33.8357C59.3961 34.2062 58.7822 34.412 58.1956 34.412C57.5954 34.4257 57.0088 34.2199 56.4904 33.8495C55.972 33.4927 55.5628 32.9576 55.2763 32.3127Z" fill="#223255"/>
<path d="M50.0653 35.9763C50.1881 35.8254 50.5564 35.3589 50.5837 34.6728C50.5973 34.4396 50.5973 33.6575 49.9834 33.0675C49.4923 32.601 48.8375 32.4775 48.3464 32.5598C47.8826 32.6284 47.4188 32.8891 47.4461 33.0401C47.4734 33.2459 48.2919 33.0675 48.6602 33.5752C48.8375 33.8222 48.8375 34.1515 48.8375 34.1926C48.8375 34.4396 48.742 34.6317 48.7011 34.7003C48.6329 34.8238 48.3328 35.3589 47.296 35.6745C46.1774 36.0175 44.4995 36.0312 44.1721 35.9901C44.1311 35.9901 44.0084 35.9763 43.9947 36.0175C43.9811 36.0587 44.0766 36.141 44.1175 36.1684C44.7859 36.7035 46.5321 36.7721 46.5321 36.7721C46.8595 36.7859 47.3097 36.7859 47.8553 36.7721C47.9645 36.7721 48.4419 36.7996 48.6875 37.1563C49.0012 37.5817 48.8512 38.3775 48.1964 38.8989C48.8103 39.1596 49.506 39.0635 50.0107 38.6656C50.5973 38.1854 50.8019 37.3896 50.5837 36.731C50.4473 36.3468 50.2154 36.1135 50.0653 35.9763Z" fill="#223255"/>
<path d="M75.1115 22.9414C77.3761 22.9414 79.2177 21.0891 79.2177 18.8114C79.2177 16.5337 77.3761 14.6814 75.1115 14.6814C72.847 14.6814 71.0054 16.5337 71.0054 18.8114C71.0054 21.1028 72.847 22.9414 75.1115 22.9414ZM75.1115 16.6161C76.3256 16.6161 77.3079 17.604 77.3079 18.8251C77.3079 20.0463 76.3256 21.0342 75.1115 21.0342C73.8974 21.0342 72.9152 20.0463 72.9152 18.8251C72.9152 17.604 73.8974 16.6161 75.1115 16.6161Z" fill="#223255"/>
<path d="M77.8535 27.7987C77.8535 29.555 79.2723 30.982 81.0184 30.982C82.7646 30.982 84.1833 29.555 84.1833 27.7987C84.1833 26.0425 82.7646 24.6155 81.0184 24.6155C79.2723 24.6155 77.8535 26.0425 77.8535 27.7987ZM81.0184 26.5364C81.7141 26.5364 82.2734 27.099 82.2734 27.7987C82.2734 28.4985 81.7141 29.0611 81.0184 29.0611C80.3227 29.0611 79.7634 28.4985 79.7634 27.7987C79.7634 27.099 80.3227 26.5364 81.0184 26.5364Z" fill="#223255"/>
<path d="M87.7847 47.8312C87.6346 47.7351 87.4846 47.5979 87.3481 47.447C86.7206 46.7746 86.6115 45.9788 86.4751 44.6342C86.3387 43.3444 86.175 41.7528 85.1791 40.1474C84.9608 39.8044 84.6062 39.2967 84.0059 38.8165C82.4098 37.5542 80.5682 37.664 80.0362 37.7326C79.013 37.856 78.29 38.254 77.9899 38.4186C77.0213 38.9537 76.4347 39.6123 75.4253 40.8472C74.6613 41.7665 74.2794 42.2193 73.9247 42.6995C73.911 42.7133 72.4514 44.593 70.105 46.0337C69.2046 46.5826 68.2633 46.953 67.3357 47.2C67.2675 47.2274 67.1993 47.2686 67.1311 47.296C67.513 46.7198 67.8541 46.116 68.1269 45.4574C68.468 44.6479 68.7135 43.7835 68.7681 42.8642C68.809 42.4114 68.7817 41.9312 68.7135 41.4646C68.6453 40.9981 68.5089 40.5316 68.3043 40.0788C68.2497 39.9691 68.1951 39.8593 68.1406 39.7495C68.086 39.6398 68.0178 39.53 67.9496 39.434C67.8268 39.2419 67.6767 39.0498 67.5267 38.8851C68.2633 38.6244 68.9454 38.254 69.532 37.7737C70.828 36.7172 71.3464 35.4274 71.5646 34.8786C73.8565 29.1844 68.7135 20.3756 66.3808 17.9881C65.8624 17.4667 64.6756 16.2319 63.0795 16.4377C63.0113 16.4514 62.9294 16.4651 62.8612 16.4788C61.6607 13.9816 59.3553 11.1963 55.0445 8.60303C50.188 5.69419 45.5225 5.52954 42.726 5.44722C38.7153 5.31001 32.6174 5.92745 26.3968 9.56349C24.2414 10.8121 22.2633 12.3351 20.4763 14.0777C19.8351 14.6951 19.2349 15.34 18.6483 16.0261C16.8748 16.1358 15.4425 16.7395 14.624 17.1786C11.159 17.8372 8.08956 21.2126 7.63938 25.1093C7.43475 26.797 7.70759 28.7865 8.55338 30.4605C8.55338 30.4879 8.55338 30.5291 8.55338 30.5565C8.56702 30.8447 8.60795 31.174 8.64887 31.5033L5.07473 34.7414C4.88375 34.9198 4.77461 35.1667 4.76097 35.4274C4.69276 37.7188 4.78825 40.024 5.04745 42.2742C5.10202 42.727 5.34757 44.5244 6.0433 46.7609C2.94662 48.133 1.8962 49.1072 1.2414 49.9442C0.859429 50.4381 0.313759 51.2202 0.095491 52.2905C0.0545658 52.4551 -0.218269 53.9644 0.409251 55.4737C1.44602 57.9435 4.10617 58.6981 5.53855 59.1098C6.30249 59.3293 7.09371 59.4665 7.89857 59.5351C7.84401 59.7546 7.87129 60.0016 7.99407 60.2212C8.11684 60.4407 8.23962 60.6465 8.36239 60.866C7.66666 61.7716 7.13464 62.7595 6.80723 63.816C6.49347 64.8039 6.19336 65.737 6.67082 66.6563C7.38019 68.0284 9.11269 68.1519 10.7906 68.2616C11.1726 68.2891 11.5682 68.3028 11.9638 68.3028C13.1643 68.3028 14.392 68.1793 15.6198 67.9323C16.1109 68.2067 16.6157 68.4674 17.134 68.7144C17.2568 68.7693 17.3932 68.7967 17.5297 68.7967C17.6797 68.7967 17.8161 68.7693 17.9525 68.7007C18.9893 69.7572 20.0807 70.7588 21.2129 71.7056C21.7995 72.1995 22.4134 72.6797 23.0273 73.1463C23.1364 73.2286 23.2728 73.2835 23.4093 73.3109C24.4733 73.5304 25.551 73.7088 26.6151 73.8598C28.3612 75.177 30.1892 76.3432 32.1127 77.3586C32.2082 77.3997 32.29 77.4546 32.3855 77.4958C32.4947 77.5507 32.5901 77.6056 32.6993 77.6605C32.8357 77.7291 32.9721 77.7977 33.1222 77.8663C33.2722 77.9349 33.4223 78.0172 33.586 78.0858C35.9187 79.2109 38.3743 80.1165 40.9253 80.7751C41.8393 81.0084 42.7669 81.2142 43.6945 81.3925C43.8719 81.42 44.0492 81.4612 44.2266 81.4886C44.2538 81.4886 44.2811 81.5023 44.3084 81.5023C44.4721 81.5298 44.6495 81.5572 44.8132 81.5846C44.9769 81.6121 45.1406 81.6395 45.2906 81.6532C45.3452 81.6532 45.3998 81.667 45.4543 81.6807C45.7681 81.7218 46.0955 81.763 46.4092 81.8042C46.4775 81.8179 46.5457 81.8179 46.6275 81.8316C46.7639 81.8453 46.914 81.8591 47.0504 81.8728C47.0777 81.8728 47.0913 81.8728 47.105 81.8728C47.296 81.8865 47.4733 81.9139 47.6643 81.9277C47.6779 81.9277 47.6779 81.9277 47.6916 81.9277C47.8689 81.9414 48.0599 81.9551 48.2372 81.9688C48.4282 81.9825 48.6192 81.9963 48.8238 82.01C48.9603 82.0237 49.1103 82.0237 49.2467 82.0374C49.465 82.0512 49.6969 82.0511 49.9152 82.0649C49.997 82.0649 50.0789 82.0649 50.1607 82.0649C50.2426 82.0649 50.3108 82.0649 50.3926 82.0649C50.4881 82.0649 50.5973 82.0649 50.6928 82.0649C50.8565 82.0649 51.0065 82.0649 51.1702 82.0649C51.3339 82.0649 51.4976 82.0649 51.6613 82.0649C51.7295 82.0649 51.8114 82.0649 51.8796 82.0649C52.1115 82.0649 52.3434 82.0511 52.5753 82.0511C56.2177 81.9277 59.7372 81.3239 63.0795 80.3086C63.2022 80.2674 63.325 80.24 63.4478 80.1988C63.5706 80.1577 63.6933 80.1165 63.8161 80.0753C63.9798 80.0204 64.1572 79.9656 64.3209 79.9107C64.3345 79.9107 64.3482 79.9107 64.3482 79.897C64.4982 79.8421 64.6619 79.7872 64.812 79.7323C65.0984 79.6225 65.3849 79.5265 65.6714 79.4167C65.8351 79.3481 66.0124 79.2932 66.1761 79.2246C66.3399 79.156 66.5035 79.0874 66.6673 79.0188C66.7764 78.9777 66.8855 78.9228 66.9947 78.8816C67.2266 78.7856 67.4585 78.6895 67.6767 78.5798C67.7859 78.5249 67.895 78.4837 68.0178 78.4288C68.2497 78.3191 68.468 78.223 68.6999 78.1132C68.809 78.0584 68.9181 78.0035 69.0409 77.9486C69.382 77.7839 69.7094 77.6193 70.0368 77.4409C70.1459 77.386 70.255 77.3311 70.3642 77.2625C70.4733 77.2077 70.5824 77.1391 70.6916 77.0842C70.7734 77.043 70.8553 76.9881 70.9508 76.947C70.9917 76.9195 71.0462 76.8921 71.0872 76.8646C71.169 76.8235 71.2645 76.7686 71.3464 76.7137C71.4555 76.6451 71.5646 76.5902 71.6738 76.5216C71.7829 76.453 71.892 76.3981 72.0012 76.3295C72.1103 76.2609 72.2058 76.206 72.3149 76.1374C72.5196 76.0139 72.7378 75.8767 72.9425 75.7395C73.0516 75.6709 73.1471 75.6023 73.2562 75.5337C73.4608 75.3965 73.6655 75.2593 73.8701 75.1221C73.8837 75.1221 73.8837 75.1084 73.8974 75.1084C74.2384 74.8888 74.5658 74.6693 74.8387 74.4498C75.0024 74.3263 75.1661 74.2165 75.3298 74.093C75.4935 73.9695 75.6435 73.846 75.8072 73.7363C75.93 73.6402 76.0528 73.5442 76.1756 73.4481C76.2438 73.3932 76.312 73.3384 76.3802 73.2835C76.503 73.1874 76.6257 73.0914 76.7349 72.9953C76.8849 72.8718 77.0486 72.7484 77.1987 72.6112C77.5125 72.3505 77.8126 72.0898 78.1127 71.8291C78.3992 71.5821 78.672 71.3351 78.9448 71.0744C79.2859 70.7588 79.6133 70.4432 79.9407 70.1139C80.0635 69.9905 80.1726 69.8807 80.2954 69.7572C80.4181 69.6337 80.5273 69.5102 80.65 69.3867C80.6773 69.3593 80.7183 69.3181 80.7455 69.277C80.8683 69.1398 81.0047 69.0163 81.1275 68.8791C81.2366 68.7556 81.3458 68.6458 81.4549 68.5223C81.6186 68.3439 81.7687 68.1656 81.9324 67.9872C82.0006 67.7402 82.0551 67.4658 82.0961 67.2051C82.1643 66.8621 82.2052 66.5191 82.2461 66.2035C82.3553 65.5998 82.3962 65.0646 82.4644 64.5295C82.5326 63.9532 82.6008 63.377 82.6827 62.8007C82.7236 62.5126 82.7645 62.2244 82.8191 61.9363L82.9691 61.0719L83.2693 59.3567L83.4603 58.2316H82.3553C81.2639 58.2316 80.1589 58.4237 79.1358 58.8079C78.9448 58.8765 78.7675 58.9588 78.5765 59.0412C78.6447 58.8765 78.7129 58.7256 78.7811 58.5609L79.4086 57.1477L77.8808 57.2025C76.0528 57.2712 73.2971 57.7377 70.6097 59.6037C67.8677 61.4972 66.6263 63.8572 66.1625 64.7491C64.8256 67.2874 64.4436 69.7846 64.4164 71.7467C63.7888 71.4449 63.2022 71.0744 62.6566 70.6353C61.4015 69.62 60.6376 68.4263 60.2011 67.5344C60.9377 67.1365 61.6607 66.7112 62.3701 66.2721C62.6839 66.08 62.8612 65.737 62.8203 65.3665C62.7384 64.3374 62.6839 63.3084 62.6566 62.2656C62.8339 62.046 62.9976 61.8128 63.1613 61.5795C65.8215 60.2898 69.8731 58.0944 71.3873 56.0225C71.6738 55.6384 72.0421 55.0209 71.9739 54.2388C71.8238 52.3865 69.3956 51.426 67.8677 51.0007C67.8814 50.9595 67.8814 50.9184 67.895 50.8772C67.9496 50.5891 67.8814 50.3146 67.7177 50.0951C69.0136 49.7933 70.3369 49.2993 71.6056 48.5172C74.4294 46.7884 76.1756 44.5381 76.2438 44.4421C76.5712 44.0167 76.9395 43.5777 77.6761 42.6858C78.6584 41.5058 78.9448 41.2177 79.3677 40.9844C79.5587 40.8746 79.8861 40.6963 80.3499 40.6414C80.4591 40.6277 81.3867 40.5316 82.1097 41.0942C82.3416 41.2863 82.4917 41.4921 82.6008 41.6705C83.2283 42.6721 83.3375 43.7286 83.4466 44.8537C83.5967 46.3081 83.7604 47.9684 85.1109 49.4228C85.411 49.7384 85.7384 50.0265 86.0795 50.2598C87.1435 50.9732 88.3167 51.2202 89.4217 51.2202C89.8582 51.2202 90.2811 51.1791 90.704 51.1242C90.9769 50.0539 91.2088 48.97 91.3861 47.8723C90.4312 48.2565 88.876 48.5584 87.7847 47.8312ZM77.7034 65.6272C77.6625 64.3923 77.6352 63.1437 77.8535 61.7716C78.4264 61.2639 79.0676 60.8523 79.777 60.5505C80.309 60.3172 80.8683 60.1525 81.4549 60.0565L81.3049 60.8386L81.1412 61.7167C81.0866 62.0049 81.0457 62.3067 80.9911 62.5949C80.8956 63.1849 80.8137 63.7749 80.7319 64.3649C80.65 64.9412 80.5818 65.5586 80.4863 66.0388C80.4318 66.2858 80.3636 66.4916 80.2681 66.7112C80.1726 66.9307 80.0498 67.1365 79.9134 67.3286C79.6406 67.7128 79.2722 68.0695 78.863 68.3714C78.481 68.6595 78.0581 68.9065 77.6079 69.126C77.7716 67.9049 77.7444 66.7523 77.7034 65.6272ZM65.0166 19.3191C66.7218 21.0479 69.723 26.1795 70.1732 30.5428C70.0504 31.2563 69.7776 32.1344 69.1773 32.9988C68.4952 34.0005 67.6358 34.6042 66.9674 34.9609C66.8582 32.3951 66.3535 29.8567 65.4668 27.3733C65.1803 26.5774 64.6619 25.2602 63.8434 23.7235C64.048 22.6258 64.089 21.5144 63.9798 20.4442C63.9116 19.7993 63.7888 19.0995 63.5706 18.3449C64.1435 18.4409 64.7438 19.0309 65.0166 19.3191ZM63.6661 28.0181C64.8529 31.3386 65.2894 34.6316 64.9893 38.0481C64.9757 38.1305 64.962 38.2128 64.962 38.2951C64.962 38.3363 64.9484 38.3637 64.9484 38.4049L49.8879 43.8795L25.0735 37.9658C26.0148 36.5937 27.1471 34.5767 27.8428 31.9423C28.4158 29.8293 28.5249 27.9495 28.5113 26.55C28.5658 25.1093 28.4021 23.7235 28.0202 22.4749C33.6678 15.1067 42.6168 11.7726 50.4472 14.1463C59.0279 16.7395 62.7384 25.4249 63.6661 28.0181ZM27.3381 11.1826C33.1767 7.77977 38.8926 7.2035 42.6578 7.3407C45.427 7.43675 49.6287 7.57396 54.0623 10.2358C60.2147 13.9267 61.8244 17.9333 62.0973 20.6363C62.0973 20.7049 62.1109 20.7735 62.1109 20.8421C59.8054 17.4805 56.2449 13.8993 51.0338 12.3214C42.7533 9.81047 33.3541 13.0761 27.2017 20.4854C27.0516 20.2247 26.8879 19.9777 26.7242 19.7444C25.4009 17.947 23.3138 16.6298 21.0765 16.177C22.9181 14.2149 25.019 12.5409 27.3381 11.1826ZM25.169 20.8833C25.5374 21.3909 25.8375 21.9672 26.0694 22.5984C26.0694 22.6121 26.083 22.6395 26.0967 22.6533C26.7924 24.5879 26.8333 27.0577 26.1512 29.5C25.2645 32.697 23.2865 35.1942 20.8719 36.1958C20.3944 36.3879 19.876 36.5526 19.3304 36.6486C19.2758 36.6486 19.2212 36.6623 19.1803 36.676C16.6975 37.1151 13.7509 36.58 12.0047 34.5356C11.6364 34.1102 11.3636 33.6574 11.1453 33.1909C11.1453 33.1772 11.1317 33.1635 11.1317 33.1635C11.1317 33.1635 11.1453 33.1635 11.1453 33.1772C11.2408 33.2321 11.3363 33.2733 11.4318 33.3281C12.073 33.63 12.9324 33.8907 14.0237 33.8907C14.9104 33.8907 15.9336 33.7123 17.0931 33.2321C20.7355 31.7365 21.895 28.0181 22.1678 26.9067C22.468 25.6719 23.2183 21.4184 20.3535 18.7702C19.9579 18.4135 19.5486 18.1116 19.1394 17.8921C19.5486 17.8921 19.9852 17.9195 20.4353 17.9881C23.2046 18.4684 24.7598 20.3207 25.169 20.8833ZM9.52194 25.2877C9.91755 21.9261 12.8369 18.9623 15.7699 18.9486H15.7835C15.9199 18.9486 16.2746 18.9623 16.7248 19.0447C17.3932 19.1819 18.2663 19.4837 19.0302 20.1835C21.1311 22.1319 20.5172 25.466 20.2853 26.454C20.067 27.3321 19.153 30.3095 16.3565 31.4484C14.4057 32.2442 13.0415 31.956 12.2367 31.5719C11.9911 31.4621 11.7728 31.3249 11.5682 31.1602C9.74021 29.8019 9.33096 27.0028 9.52194 25.2877ZM6.65717 35.8528L6.79359 35.7293C7.01186 35.8391 7.20285 35.9077 7.3529 35.9763C8.56702 36.4702 9.49466 36.5937 10.5996 36.7995C11.0498 36.8956 11.5409 36.9916 12.0866 37.1426C12.9733 37.76 14.0101 38.1991 15.156 38.4598C14.8559 39.3928 14.2556 40.9295 13.328 42.137C12.8369 42.7681 12.2503 43.3444 12.2367 43.3444C12.1412 43.4405 11.6091 43.9344 10.9407 44.4009C10.8043 44.497 10.6815 44.5793 10.5451 44.6616C9.76749 45.1419 8.97627 45.4712 8.00771 45.8691C7.9395 45.8965 7.88493 45.9239 7.81672 45.9514C7.14828 43.7423 6.94365 42.0409 6.94365 42.0135C6.71174 39.9965 6.61625 37.9246 6.65717 35.8528ZM14.051 45.7867C15.6062 46.1435 17.1613 46.4865 18.7165 46.8433C17.2977 47.4058 15.9199 48.0233 14.5694 48.7093C13.519 49.2444 12.4822 49.8344 11.4591 50.4519C11.118 50.6577 10.7906 50.8635 10.4632 51.083C10.4223 51.0967 10.3677 51.0967 10.3268 51.083C10.1904 51.0556 9.95848 50.9184 9.64472 50.3421C9.35824 49.8344 9.09905 49.313 8.86714 48.7916C8.96263 48.7505 9.05812 48.7093 9.13997 48.6819C9.75385 48.4349 10.3541 48.1879 10.9407 47.886C11.5 47.6116 12.0593 47.296 12.6323 46.9119C13.2461 46.4865 13.7509 46.0612 14.051 45.7867ZM6.3707 56.2146C5.293 55.8991 3.65599 55.4326 3.17853 54.2937C2.90569 53.6351 3.04211 52.8942 3.04211 52.8942C3.08303 52.7158 3.1376 52.5512 3.23309 52.3728C3.32859 52.1944 3.45136 52.016 3.61506 51.8102C3.83333 51.5221 4.379 50.836 7.13464 49.56C7.39383 50.1363 7.68031 50.7126 8.00771 51.2888C8.21233 51.6593 8.83985 52.7707 10.0403 52.9765C10.0676 52.9765 10.0813 52.9765 10.1085 52.9902C10.2995 53.8684 10.5587 54.7191 10.8998 55.5423C10.9953 55.7893 11.1044 56.0363 11.2135 56.2695C9.52194 56.6674 7.89857 56.6537 6.3707 56.2146ZM10.927 66.3407C9.9994 66.2721 8.5943 66.1898 8.37604 65.7644C8.2669 65.5586 8.4306 65.0235 8.63523 64.406C8.83986 63.7612 9.13997 63.1437 9.52194 62.5537C9.9994 63.1986 10.5178 63.8023 11.0635 64.3786C11.7319 65.0784 12.4549 65.737 13.2189 66.327C12.4549 66.3819 11.6773 66.3956 10.927 66.3407ZM17.516 66.766C15.6062 65.8193 13.9009 64.5844 12.4413 63.0614C11.5546 62.1421 10.777 61.1267 10.1085 60.0428L11.841 58.8079C11.9775 59.1784 12.1684 59.5214 12.3594 59.8232C12.4276 59.9193 12.4822 60.0153 12.5368 60.0977C12.5913 60.18 12.6732 60.2898 12.7414 60.3721C12.8096 60.4681 12.8778 60.5505 12.946 60.6465C13.0142 60.7288 13.0824 60.8249 13.1643 60.9072L13.3826 61.1542L13.6008 61.3874C13.7509 61.5521 13.9009 61.6893 14.051 61.8402C14.6649 62.4302 15.2924 62.9516 15.9336 63.4593C16.5747 63.9532 17.2432 64.4335 17.9116 64.8863C17.9662 64.9274 18.0208 64.9549 18.0617 64.996C18.3482 65.1881 18.6346 65.3665 18.9211 65.5586C19.0712 65.6546 19.2076 65.737 19.3576 65.833L18.8665 66.08L17.516 66.766ZM61.4561 72.1995C62.5338 73.0777 63.7752 73.7363 65.1121 74.1479C65.1121 74.1479 65.1121 74.1479 65.1257 74.1479H65.1394H65.153C65.1803 74.1616 65.2212 74.1616 65.2485 74.1753C65.2621 74.1753 65.2621 74.1753 65.2758 74.1753C65.3167 74.1753 65.3576 74.1891 65.3849 74.1891H65.3986C65.4122 74.1891 65.4122 74.1891 65.4258 74.1891C65.4395 74.1891 65.4668 74.1891 65.4804 74.1891C65.4941 74.1891 65.5213 74.1891 65.535 74.1891C65.5486 74.1891 65.5623 74.1891 65.5623 74.1891C65.6032 74.1891 65.6441 74.1753 65.685 74.1616C65.6987 74.1616 65.6987 74.1616 65.7123 74.1479C65.7533 74.1342 65.7942 74.1205 65.8351 74.093C65.876 74.0793 65.917 74.0518 65.9442 74.0244C65.9442 74.0244 65.9579 74.0107 65.9715 74.0107C65.9988 73.9832 66.0397 73.9558 66.067 73.9284L66.0807 73.9146C66.1079 73.8872 66.1352 73.8598 66.1489 73.8186L66.1625 73.8049C66.1898 73.7637 66.2034 73.7363 66.2307 73.6951C66.2307 73.6814 66.2444 73.6814 66.2444 73.6677C66.2716 73.6265 66.2853 73.5853 66.2989 73.5305C66.2989 73.5167 66.2989 73.5167 66.2989 73.503C66.2989 73.4893 66.3126 73.4618 66.3126 73.4481C66.3126 73.4344 66.3126 73.4207 66.3262 73.407C66.3262 73.3932 66.3262 73.3795 66.3262 73.3521C66.3262 73.3384 66.3262 73.3109 66.3262 73.2972C66.3262 73.2835 66.3262 73.2698 66.3262 73.256C66.3262 73.2286 66.3262 73.2149 66.3262 73.1874C66.3262 73.1737 66.3262 73.1737 66.3262 73.16C66.1761 71.3351 66.3126 68.5498 67.7995 65.7095C68.2088 64.9412 69.2865 62.883 71.6465 61.2502C73.3108 60.0977 75.016 59.5625 76.4347 59.3293C76.3529 59.6037 76.271 59.8919 76.1892 60.1663C76.121 60.427 76.0664 60.6739 76.0255 60.9209C75.9709 61.0581 75.9436 61.1953 75.9436 61.3463C75.8891 61.6893 75.8482 62.0049 75.8209 62.3342C75.5344 62.5674 75.2752 62.8419 75.0024 63.1025C74.6477 63.4593 74.3066 63.7886 73.9383 64.1179C73.57 64.4335 73.188 64.7353 72.7788 65.0235C72.5741 65.1607 72.3695 65.3116 72.1512 65.4488C71.9466 65.586 71.7283 65.7095 71.5101 65.8467C71.4146 65.9016 71.36 66.0114 71.3873 66.1212C71.4146 66.2721 71.551 66.3681 71.6874 66.3407C71.9466 66.2995 72.2058 66.2446 72.465 66.176C72.7242 66.1074 72.9834 66.0388 73.2289 65.9565C73.7337 65.7919 74.2384 65.586 74.7295 65.3528C74.9751 65.2293 75.2206 65.1058 75.4525 64.9686L75.739 64.8039C75.739 65.0921 75.7527 65.3802 75.7663 65.6684C75.7936 66.4093 75.8072 67.1228 75.7799 67.8363C75.6981 67.8774 75.6026 67.9323 75.5207 67.9735C75.2752 68.1107 75.0296 68.2616 74.7841 68.4125L74.0474 68.8653C73.8019 69.0163 73.57 69.1535 73.3244 69.2907C72.8333 69.5651 72.3422 69.8121 71.8102 70.0316C71.551 70.1414 71.2918 70.2512 71.019 70.3472C70.7461 70.4432 70.4733 70.5393 70.2005 70.6216C70.0913 70.6491 70.0231 70.7451 70.0231 70.8686C70.0231 71.0195 70.1323 71.143 70.2823 71.143C70.5824 71.1567 70.8826 71.143 71.1827 71.1293C71.4828 71.1156 71.7829 71.0881 72.0967 71.047C72.6969 70.9784 73.3108 70.8549 73.8974 70.6765C74.1975 70.5942 74.484 70.4981 74.7841 70.4021C75.016 70.3198 75.2206 70.2512 75.4389 70.1688C75.4253 70.21 75.4116 70.2512 75.398 70.2923C75.3707 70.3472 75.357 70.4158 75.3434 70.4844C75.207 70.9098 74.9751 71.5135 74.5113 72.1172C74.3748 72.3093 73.9247 72.8718 72.7378 73.5991C71.4828 74.3537 70.064 74.8614 68.4952 75.1221H68.4816C68.4543 75.1221 68.427 75.1358 68.3997 75.1358C68.3861 75.1358 68.3861 75.1358 68.3725 75.1495C68.3588 75.1495 68.3315 75.1632 68.3179 75.177C68.3043 75.177 68.2906 75.1907 68.277 75.1907C68.2633 75.1907 68.2497 75.2044 68.2361 75.2044C68.2224 75.2181 68.2088 75.2181 68.1951 75.2318C68.1815 75.2456 68.1678 75.2456 68.1678 75.2456C68.1542 75.2593 68.1269 75.273 68.1133 75.2867L68.0996 75.3005C68.0996 75.3005 66.0124 76.7 64.2254 77.7016C62.7111 78.566 55.7675 80.8163 46.6275 79.7598C41.0071 79.1012 37.0237 77.4821 35.4549 76.796C33.4223 75.9042 31.7853 74.9712 30.5985 74.2165C31.758 74.2851 32.9176 74.3263 34.0771 74.3263C36.0415 74.3263 37.9923 74.2165 39.9431 74.0107C46.341 73.3109 52.6845 71.4037 58.5095 68.4674C59.2189 69.9219 60.2283 71.1979 61.4561 72.1995ZM60.5012 52.51C59.7782 53.8546 59.0006 55.1993 58.1957 56.4891C57.3772 57.7926 56.5041 59.0549 55.6038 60.3172C54.7034 61.5795 53.7485 62.8144 52.8072 64.063C52.739 64.1591 52.7254 64.2963 52.8072 64.406C52.9027 64.5295 53.0801 64.557 53.2028 64.4609C54.4715 63.5005 55.6447 62.4165 56.7497 61.2777C57.8547 60.1251 58.8778 58.8902 59.8191 57.6005C60.0101 57.3398 60.1874 57.0791 60.3648 56.8184C60.2283 58.3963 60.1601 60.0839 60.1601 61.8677C60.1601 63.0888 60.2147 64.2551 60.2829 65.3665C53.9531 69.0163 46.8867 71.3488 39.7384 72.1309C34.5136 72.7072 29.2206 72.4739 24.0095 71.4586C23.5866 71.143 23.1773 70.8137 22.7681 70.4844C22.659 70.4021 22.5498 70.306 22.4407 70.21C21.513 69.4416 20.6127 68.6184 19.7533 67.7677L20.0943 67.5893L21.4312 66.9032C21.8404 67.0267 22.2633 67.1091 22.6862 67.1091C23.2046 67.1228 23.7094 67.0405 24.1732 66.9032C24.637 66.766 25.0599 66.5877 25.4555 66.3681C25.6056 66.2858 25.7556 66.2035 25.892 66.1212C26.847 65.9428 27.7883 65.7232 28.7295 65.4763C29.8072 65.1881 30.8713 64.8588 31.9081 64.4884C32.4264 64.2963 32.9585 64.1179 33.4632 63.9121C33.9816 63.7063 34.4727 63.4593 34.9638 63.1986C35.946 62.6772 36.9009 62.1146 37.7877 61.4423C37.8422 61.4012 37.8559 61.3326 37.8422 61.2777C37.8149 61.1953 37.7331 61.1542 37.6512 61.1816C36.6008 61.4972 35.5641 61.8402 34.5409 62.1558C34.0225 62.3067 33.5041 62.4577 32.9994 62.6223C32.481 62.787 31.9763 62.9516 31.4715 63.0888C30.7076 63.2946 29.9436 63.4867 29.1797 63.6514C29.8754 63.0477 30.5575 62.4165 31.1987 61.7579C32.3173 60.6053 33.3541 59.3567 34.2272 57.9984C34.2817 57.9023 34.2817 57.7788 34.2135 57.6828C34.118 57.5593 33.9407 57.5456 33.8316 57.6416C32.5901 58.6295 31.3897 59.6312 30.1483 60.5779C28.9205 61.5384 27.6791 62.4714 26.4241 63.3495C25.7966 63.7886 25.169 64.1865 24.5415 64.4746C23.914 64.7628 23.3138 64.9137 22.7817 64.8725C22.5089 64.8588 22.2497 64.7902 21.9905 64.6805C21.8677 64.6256 21.7313 64.557 21.6222 64.4884L21.1584 64.1865C20.8173 63.9807 20.5036 63.7612 20.1762 63.5553C19.8624 63.3358 19.535 63.13 19.2212 62.8967C18.5937 62.4577 17.9662 62.0049 17.366 61.5384C16.7657 61.0718 16.1791 60.5916 15.6334 60.0839C15.3606 59.837 15.1014 59.5763 14.8695 59.3156C14.8013 59.247 14.7467 59.1921 14.6922 59.1235C14.6376 59.0549 14.583 59 14.5285 58.9314C14.4739 58.8628 14.433 58.8079 14.3784 58.7393L14.3648 58.7119L14.2283 58.5198C14.051 58.2453 13.9009 57.9846 13.8055 57.7239C13.7372 57.5456 13.6963 57.3535 13.669 57.1751C13.6554 57.0928 13.6554 57.0105 13.6418 56.9281C13.6281 56.3793 13.8055 55.7619 14.1056 55.3365C14.4057 54.8974 15.0059 54.4035 15.6062 53.937L17.4614 52.4963C18.0753 52.0023 18.7028 51.5221 19.3167 50.987C19.3849 50.9321 19.4122 50.836 19.3849 50.7537C19.344 50.6302 19.2212 50.5616 19.0985 50.6028C18.3209 50.8223 17.5706 51.1242 16.8339 51.4398C16.0973 51.7553 15.3743 52.1121 14.6649 52.4963C14.3102 52.6884 13.9419 52.8942 13.5872 53.1549C13.2325 53.4019 12.8505 53.69 12.5231 54.1016C12.5095 54.1153 12.5095 54.1153 12.4958 54.1291C12.4686 54.1565 12.4413 54.1977 12.4004 54.2388C12.1957 53.6488 12.0184 53.0451 11.8956 52.4277L11.9502 52.4002C13.0688 51.6867 14.242 51.0281 15.4152 50.4244C17.5433 49.3405 19.7669 48.4074 22.0451 47.6802C22.0996 47.6665 22.1406 47.6391 22.1815 47.6253C22.9045 47.79 23.6275 47.9546 24.3642 48.1056L24.9371 48.2016L25.5101 48.3114L26.6423 48.5309L31.1987 49.3816L43.3671 51.673V56.3519C44.0901 56.4753 44.8268 56.5988 45.5498 56.736V52.0846L49.4241 52.8119H49.4377C49.5741 52.8393 49.7242 52.8256 49.8743 52.7844L53.844 51.6319V56.0912C53.844 56.146 53.844 56.2009 53.8576 56.2558C54.5807 56.0088 55.3037 55.7619 56.0267 55.5149V51.0007L62.1382 49.217C61.6334 50.3284 61.0878 51.426 60.5012 52.51ZM56.054 48.9974V47.6253C56.054 47.5705 56.054 47.5156 56.0403 47.4607C55.3173 47.6665 54.5943 47.8723 53.8713 48.0781V49.6286L49.6014 50.8635L45.5907 50.1088V48.6819C44.8677 48.5584 44.1447 48.4349 43.4081 48.3114C43.4081 48.3526 43.4081 48.38 43.4081 48.4212V49.6972L31.5807 47.4744L27.0243 46.61L24.7461 46.1846C23.9822 46.0612 23.2183 45.9651 22.4543 45.8553C19.9852 45.5123 17.5024 45.1556 15.0332 44.8126C15.2515 44.5793 15.497 44.2912 15.7153 43.9893C17.1477 42.137 17.9389 39.7633 18.2117 38.8165C18.2254 38.7753 18.239 38.7342 18.239 38.693C18.6346 38.6656 19.0302 38.6244 19.4122 38.5558L49.7651 45.8005C49.8333 45.8142 49.9152 45.8279 49.9834 45.8279C50.0925 45.8279 50.2017 45.8142 50.3108 45.773L66.0261 40.0651C66.2444 40.2984 66.4353 40.5728 66.5581 40.8609C66.6809 41.1353 66.7627 41.4235 66.8173 41.7391C66.8582 42.0546 66.8855 42.3702 66.8446 42.6995C66.8037 43.3581 66.6127 44.0305 66.3398 44.6753C66.1079 45.2242 65.8078 45.7593 65.4668 46.2533L56.054 48.9974ZM62.7384 58.8628C62.9021 55.9677 63.3387 53.0863 64.048 50.246L65.8897 51.2477C65.4804 52.9628 64.8802 54.6505 64.1435 56.2558C63.7206 57.1477 63.2568 58.0258 62.7384 58.8628ZM70.0913 54.4858C70.105 54.623 69.9822 54.8151 69.8594 54.966C69.1637 55.9128 67.4994 57.1477 65.1803 58.4512C65.4258 57.9984 65.6578 57.5456 65.876 57.0791C66.5035 55.7481 67.0083 54.3623 67.4312 52.9491C69 53.3881 70.0504 54.0605 70.0913 54.4858Z" fill="#223255"/>
</g>
<defs>
<clipPath id="clip0_86_7483">
<rect width="92" height="82.0923" fill="white"/>
</clipPath>
</defs>
</svg>
