<svg width="30" height="25" viewBox="0 0 30 25" fill="none" xmlns="http://www.w3.org/2000/svg">
<path fill-rule="evenodd" clip-rule="evenodd" d="M2.06234 10.7029C10.1154 7.19428 15.4854 4.88121 18.1722 3.76365C25.8438 0.572785 27.4379 0.0184981 28.4769 0.00019515C28.7054 -0.00383037 29.2163 0.0528032 29.5473 0.321364C29.8268 0.548132 29.9037 0.854463 29.9405 1.06946C29.9773 1.28446 30.0231 1.77424 29.9867 2.15694C29.5709 6.52499 27.7721 17.1251 26.857 22.0174C26.4697 24.0875 25.7073 24.7816 24.9691 24.8495C23.3649 24.9971 22.1467 23.7894 20.593 22.7709C18.1617 21.1771 16.7882 20.185 14.4282 18.6298C11.7008 16.8325 13.4688 15.8447 15.0232 14.2303C15.4299 13.8078 22.4981 7.3788 22.6349 6.79559C22.652 6.72265 22.6679 6.45076 22.5063 6.3072C22.3448 6.16363 22.1064 6.21272 21.9344 6.25177C21.6905 6.30711 17.8065 8.87431 10.2823 13.9534C9.17983 14.7104 8.18124 15.0793 7.28655 15.0599C6.30022 15.0386 4.40291 14.5022 2.99246 14.0438C1.26249 13.4814 -0.112459 13.1841 0.00726778 12.2291C0.0696291 11.7316 0.754654 11.2229 2.06234 10.7029Z" fill="white"/>
</svg>
