<svg width="21" height="23" viewBox="0 0 21 23" fill="none" xmlns="http://www.w3.org/2000/svg">
<path d="M17.3702 21.0408C17.8136 20.456 19.3049 18.3453 19.4201 15.1194C19.5548 11.3044 17.6637 8.7763 17.2919 8.2959C14.666 8.37633 12.0379 8.45893 9.41198 8.53936C8.93158 9.41757 7.77078 11.8044 7.83599 15.1172C7.89251 17.9062 8.79028 19.9408 9.25547 20.8495C11.9597 20.9147 14.666 20.9777 17.3702 21.0408Z" fill="#F8CBC0"/>
<path d="M15.5051 8.7915C15.9942 9.90231 16.7876 12.0565 16.8702 14.9324C16.9506 17.7105 16.3311 19.8626 15.9224 21.0081" stroke="#EFA39A" stroke-width="0.586921" stroke-miterlimit="10" stroke-linecap="round" stroke-linejoin="round"/>
<path d="M13.5094 9.95007C13.6963 11.1696 13.8507 12.5043 13.942 13.9433C14.1094 16.5779 14.0311 18.9452 13.8485 20.9581" stroke="#EFA39A" stroke-width="0.586921" stroke-miterlimit="10" stroke-linecap="round" stroke-linejoin="round"/>
<path d="M11.4335 8.948C11.177 10.2718 10.964 11.8652 10.9074 13.6781C10.8183 16.6106 11.1726 19.0865 11.5639 20.906" stroke="#EFA39A" stroke-width="0.586921" stroke-miterlimit="10" stroke-linecap="round" stroke-linejoin="round"/>
<path d="M17.3702 21.0408C17.8136 20.456 19.3049 18.3453 19.4201 15.1194C19.5548 11.3044 17.6637 8.7763 17.2919 8.2959C14.666 8.37633 12.0379 8.45893 9.41198 8.53936C8.93158 9.41757 7.77078 11.8044 7.83599 15.1172C7.89251 17.9062 8.79028 19.9408 9.25547 20.8495C11.9597 20.9147 14.666 20.9777 17.3702 21.0408Z" stroke="black" stroke-width="0.586921" stroke-miterlimit="10" stroke-linecap="round" stroke-linejoin="round"/>
<path d="M14.6792 3.26797C14.9792 3.04842 15.4357 2.768 16.0313 2.58975C17.3421 2.19847 19.0855 2.38107 19.2767 3.0919C19.4789 3.84402 17.8834 4.97656 17.6203 5.16133C18.1464 5.34176 20.2919 6.11346 20.2441 6.91341C20.205 7.60032 18.5551 8.16333 16.2008 8.41766C16.3204 9.42629 15.9226 10.3849 15.2335 10.798C14.301 11.3566 12.8945 10.8784 12.3011 9.51977C10.0773 10.0654 8.4274 9.96539 8.17524 9.26761C7.91439 8.54374 9.21431 7.3199 9.59472 6.97644C9.42734 6.91123 6.49492 5.74391 6.61665 4.83962C6.70577 4.17444 8.4361 3.75273 10.8468 3.78099C10.5881 2.3702 11.2338 1.11158 12.0424 0.835511C13.0032 0.509444 14.4727 1.46156 14.6792 3.26797Z" fill="#FDE1BB" stroke="black" stroke-width="0.586921" stroke-miterlimit="10" stroke-linecap="round" stroke-linejoin="round"/>
<path d="M8.2711 22.2396C8.56022 21.8592 9.52973 20.4853 9.60581 18.3855C9.69276 15.903 8.4624 14.2553 8.21894 13.9423C6.50817 13.9944 4.79958 14.0488 3.08881 14.101C2.77579 14.6727 2.01931 16.2269 2.06279 18.3833C2.09974 20.1984 2.68449 21.5244 2.98664 22.1157C4.74741 22.157 6.51034 22.1983 8.2711 22.2396Z" fill="#F8C0DF"/>
<path d="M7.05599 14.2639C7.37554 14.9878 7.89072 16.3899 7.94507 18.2615C7.99724 20.0701 7.59292 21.4722 7.32771 22.2178" stroke="#EF9AD1" stroke-width="0.586921" stroke-miterlimit="10" stroke-linecap="round" stroke-linejoin="round"/>
<path d="M5.75606 15.0183C5.87779 15.8117 5.97778 16.6813 6.03865 17.6182C6.14734 19.3333 6.09734 20.8745 5.97778 22.1853" stroke="#EF9AD1" stroke-width="0.586921" stroke-miterlimit="10" stroke-linecap="round" stroke-linejoin="round"/>
<path d="M4.40613 14.3661C4.23875 15.2291 4.09963 16.266 4.06485 17.4463C4.00616 19.3549 4.23876 20.9679 4.49309 22.1526" stroke="#EF9AD1" stroke-width="0.586921" stroke-miterlimit="10" stroke-linecap="round" stroke-linejoin="round"/>
<path d="M8.27111 22.2396C8.56022 21.8592 9.52973 20.4853 9.60581 18.3855C9.69276 15.903 8.4624 14.2553 8.21894 13.9423C6.50817 13.9944 4.79958 14.0488 3.08881 14.101C2.77579 14.6727 2.01931 16.2269 2.06279 18.3833C2.09974 20.1984 2.68449 21.5244 2.98664 22.1157C4.74741 22.157 6.51034 22.1983 8.27111 22.2396Z" stroke="black" stroke-width="0.586921" stroke-miterlimit="10" stroke-linecap="round" stroke-linejoin="round"/>
<path d="M6.51907 10.6685C6.71471 10.5273 7.01035 10.3425 7.39946 10.2273C8.25375 9.97294 9.38847 10.0903 9.51237 10.5533C9.64497 11.0424 8.6059 11.7815 8.43417 11.9011C8.77545 12.0185 10.1732 12.5206 10.1428 13.0423C10.1167 13.4901 9.04283 13.8575 7.51031 14.0205C7.58857 14.677 7.32989 15.3009 6.87992 15.5704C6.27343 15.9334 5.3561 15.6226 4.97134 14.7379C3.5236 15.0922 2.44975 15.027 2.28672 14.5748C2.11716 14.1031 2.96277 13.3075 3.21058 13.0814C3.10189 13.038 1.19331 12.2793 1.27157 11.6902C1.33026 11.2576 2.45627 10.9816 4.02574 11.0011C3.85619 10.0816 4.27791 9.26211 4.80396 9.08386C5.42784 8.87083 6.3843 9.49253 6.51907 10.6685Z" fill="#FDE1BB" stroke="black" stroke-width="0.586921" stroke-miterlimit="10" stroke-linecap="round" stroke-linejoin="round"/>
</svg>
