<svg width="21" height="18" viewBox="0 0 21 18" fill="none" xmlns="http://www.w3.org/2000/svg">
<path d="M10.762 6.69275L15.5088 1.45239H6.01522L10.762 6.69275Z" fill="#5EFAFF"/>
<path d="M10.7619 6.69275H1.26898L6.01513 11.9337L10.7619 17.1741L15.5087 11.9337L20.2549 6.69275H10.7619Z" fill="#33C4CC"/>
<path d="M6.63337 6.69275C4.84545 6.69275 3.0569 6.69275 1.26898 6.69275L6.01577 11.9331L10.7619 17.1735C9.38552 13.6803 8.00976 10.1865 6.63337 6.69275Z" fill="#2791CC"/>
<path d="M10.762 6.69275H6.63343L8.69803 11.9337L10.762 17.1741L12.8259 11.9337L14.8905 6.69275H10.762Z" fill="#3BDAE8"/>
<path d="M6.01515 1.45215L1.269 6.6925H10.7619C10.7619 4.94593 10.7619 3.19872 10.7619 1.45215C9.17946 1.45215 7.59762 1.45215 6.01515 1.45215Z" fill="#5ED1FF"/>
<path d="M15.5086 1.45239L10.7619 6.69275H20.2548L15.5086 1.45239Z" fill="#5EFAFF"/>
<path d="M10.762 1.45239L6.63343 6.69275H14.8905L10.762 1.45239Z" fill="#7BFFFF"/>
<path d="M16.4558 2.49805C15.9342 3.89607 15.412 5.29473 14.8905 6.69275C15.4063 6.743 15.9228 6.79324 16.4386 6.84349C16.9156 5.9454 17.3927 5.04667 17.8697 4.14858C17.3984 3.5984 16.9271 3.04822 16.4558 2.49805Z" fill="white"/>
<path d="M14.8905 6.69275C13.5141 4.94618 12.1384 3.19897 10.762 1.45239C9.38559 3.19897 8.00983 4.94618 6.63343 6.69275" stroke="#0A9ABC" stroke-width="0.954064" stroke-miterlimit="10" stroke-linecap="round" stroke-linejoin="round"/>
<path d="M6.63343 6.69275C8.00983 10.1865 9.38559 13.6803 10.762 17.1741C12.1384 13.6803 13.5141 10.1865 14.8905 6.69275" stroke="#1B748C" stroke-width="0.954064" stroke-miterlimit="10" stroke-linecap="round" stroke-linejoin="round"/>
<path d="M1.26898 6.69275C7.59761 6.69275 13.9262 6.69275 20.2549 6.69275" stroke="#0F5D84" stroke-width="0.954064" stroke-miterlimit="10" stroke-linecap="round" stroke-linejoin="round"/>
<path d="M6.01515 1.45215C9.17946 1.45215 12.3438 1.45215 15.5081 1.45215C17.0899 3.19872 18.6724 4.94593 20.2549 6.69251C17.0906 10.1863 13.9262 13.6801 10.7619 17.1739C7.59762 13.6801 4.43331 10.1863 1.269 6.69251C2.85147 4.94593 4.43331 3.19872 6.01515 1.45215Z" stroke="black" stroke-width="0.954064" stroke-miterlimit="10" stroke-linecap="round" stroke-linejoin="round"/>
</svg>
