<svg width="48" height="48" viewBox="0 0 48 48" fill="none" xmlns="http://www.w3.org/2000/svg">
<path d="M5.65285 27.3967C5.91381 26.7306 6.1895 26.0911 6.87075 25.6804C9.31604 24.2265 11.2902 22.615 14.0032 21.0134C15.1301 20.4612 15.276 19.6497 15.3161 18.5833C15.3641 15.6329 15.4121 12.6826 15.5016 9.74408C15.5644 8.21266 16.8587 7.39402 18.1838 8.40316C20.624 10.2938 23.1029 12.1281 25.5162 14.0335C26.1226 14.4995 26.6085 14.6839 27.4048 14.4184C30.0911 13.5278 32.8215 12.7172 35.5546 11.9747C37.6787 11.3943 38.5648 12.3672 38.0068 14.52C37.2922 17.2117 36.1774 19.811 35.2286 22.4579C34.9583 23.2336 34.9944 23.8054 35.487 24.5081C37.1562 26.9634 39.0248 29.2738 40.3728 31.9063C40.6994 32.5615 40.8869 33.1542 40.7236 33.8709C40.2685 34.122 39.8402 34.3583 39.3852 34.6095C38.6878 34.6114 38.032 34.6252 37.3199 34.6005C34.8986 34.5791 32.4774 34.5578 30.0681 34.495C29.1781 34.464 28.6039 34.8157 28.0725 35.5614C26.5535 37.618 24.922 39.5973 23.4592 41.6925C23.059 42.2962 22.6174 42.888 21.9067 43.2454C21.1157 43.6471 20.1078 43.4027 19.9806 42.6027C19.8735 41.9656 19.5643 41.4053 19.4036 40.7978C18.8199 38.4745 18.2242 36.1926 17.5187 33.9017C17.188 32.7963 16.5241 31.9096 15.2525 31.567C13.6343 31.1025 11.9866 30.5846 10.4433 29.9395C8.99777 29.3449 7.37554 29.1263 6.07986 28.1705C5.94734 27.9304 5.80009 27.6635 5.65285 27.3967ZM19.5145 12.3331C19.0955 11.7638 18.453 11.4221 17.8761 11.0095C17.6339 11.4565 17.7062 11.9039 17.7102 12.3542C17.6622 14.6084 17.5191 16.8803 17.6343 19.1141C17.7254 20.7346 17.0241 21.6785 15.7299 22.4972C13.4599 23.889 11.2903 25.3996 8.91867 26.9868C9.57052 27.2189 10.0417 27.3766 10.486 27.549C12.8565 28.3642 15.227 29.1794 17.6242 29.9798C18.4005 30.2475 18.8529 30.6244 19.0511 31.4897C19.6201 33.7863 20.2961 36.0239 20.9721 38.2614C21.1448 38.8275 21.0579 39.7457 21.5946 39.8324C22.2411 39.9281 22.494 39.0576 22.8286 38.5248C23.6397 37.59 24.3945 36.6165 25.0101 35.5806C25.6874 34.7195 26.4208 33.8971 27.015 33.0123C27.5316 32.2399 28.1379 32.0097 29.028 32.0406C31.2057 32.1268 33.4008 32.3078 35.5851 32.2162C36.3708 32.3744 37.1244 32.411 38.0091 32.3057C37.7802 31.7011 37.4496 31.2918 37.131 30.841C35.842 29.0114 34.565 27.1403 33.1956 25.3549C32.4166 24.3229 32.2987 23.4133 32.8113 22.1906C33.9141 19.6328 34.8093 17.0155 35.809 14.2709C34.856 14.3791 34.1159 14.6831 33.361 14.9605C31.2931 15.5795 29.24 16.2252 27.1868 16.8709C26.4975 17.0772 25.8202 17.2421 25.1992 16.7495C23.348 15.23 21.5089 13.6691 19.5145 12.3331Z" fill="#233356"/>
<path d="M25.1994 16.7492C25.8472 17.2271 26.4977 17.077 27.187 16.8707C29.2402 16.225 31.3081 15.6059 33.3612 14.9602C32.3736 17.6634 31.3592 20.3813 30.2886 23.0606C30.0637 23.6023 29.8416 24.2122 30.199 24.6068C30.8401 25.2624 31.2136 26.0657 31.7477 26.7804C33.0755 28.5538 34.4984 30.3096 35.6269 32.2279C33.4425 32.3195 31.2474 32.1385 29.0697 32.0523C28.1796 32.0214 27.5733 32.2515 27.0567 33.0239C26.4357 33.9236 25.7291 34.7312 25.0518 35.5923C24.6141 34.5459 24.1349 33.4877 23.7507 32.4118C22.0385 27.474 21.6059 22.3871 22.1678 17.2039C22.6603 17.2106 22.9495 17.6079 23.3015 17.8662C23.7512 18.1749 24.1889 18.5251 24.8046 18.1854C25.4471 17.8308 25.3159 17.2767 25.1994 16.7492Z" fill="#FCDE87"/>
<path d="M22.1821 17.2306C21.6202 22.4138 22.0113 27.4888 23.765 32.4385C24.1492 33.5144 24.6137 34.5459 25.0661 35.619C24.4237 36.6696 23.6689 37.6431 22.8846 38.5632C21.965 36.3905 21.4642 34.091 21.0733 31.8006C20.6823 29.5101 19.5687 28.3147 17.2826 27.9054C15.6991 27.6306 14.0809 27.1661 12.3957 26.3904C14.5573 25.3716 16.1393 23.8721 18.1135 22.9567C19.041 22.5492 19.4144 21.9603 19.413 20.882C19.4035 18.9032 19.2281 16.8767 19.4649 14.9012C20.4353 15.5839 21.4593 16.2372 22.1821 17.2306Z" fill="#FDF3BD"/>
<path d="M19.4652 14.9012C19.2431 16.9033 19.4038 18.9031 19.4133 20.882C19.4147 21.9603 19.0413 22.5492 18.1138 22.9566C16.1248 23.8453 14.5576 25.3716 12.396 26.3904C14.0812 27.166 15.6994 27.6305 17.2828 27.9054C19.5957 28.2999 20.6679 29.4834 21.0736 31.8005C21.4645 34.091 21.9652 36.3905 22.8849 38.5632C22.5503 39.0959 22.2974 39.9665 21.6509 39.8707C21.1142 39.784 21.1596 38.8539 21.0284 38.2998C20.3791 36.0475 19.6884 33.7832 19.1074 31.5281C18.8825 30.6775 18.4421 30.2592 17.6805 30.0181C15.298 29.2444 12.9128 28.4026 10.5423 27.5874C10.0712 27.4297 9.6268 27.2572 8.97495 27.0252C11.3466 25.4379 13.543 23.9126 15.7861 22.5355C17.0804 21.7169 17.7817 20.7729 17.6906 19.1524C17.5754 16.9187 17.7185 14.6468 17.7665 12.3925C17.7625 11.9423 17.6902 11.4948 17.9324 11.0479C18.5093 11.4605 19.125 11.8169 19.5708 12.3715C19.2054 13.1649 19.3353 14.033 19.4652 14.9012Z" fill="#EBB15B"/>
<path d="M35.6411 32.2546C34.5127 30.3363 33.0631 28.5953 31.762 26.8071C31.2279 26.0924 30.8544 25.289 30.2133 24.6334C29.8291 24.2537 30.078 23.629 30.3028 23.0872C31.3735 20.4079 32.3611 17.7048 33.4023 14.9721C34.1572 14.6948 34.8973 14.3908 35.8503 14.2826C34.8359 17.0005 33.9553 19.6445 32.8673 22.229C32.3547 23.4517 32.4873 24.388 33.2516 25.3933C34.621 27.1786 35.8712 29.0645 37.187 30.8794C37.5056 31.3301 37.863 31.7247 38.0651 32.3441C37.2071 32.4346 36.4268 32.4127 35.6411 32.2546Z" fill="#F8F6EB"/>
<path d="M19.4653 14.9012C19.3354 14.0331 19.1787 13.1797 19.5147 12.333C21.509 13.6689 23.3482 15.2298 25.1993 16.7493C25.3305 17.3034 25.4203 17.8457 24.8046 18.1854C24.2036 18.5518 23.778 18.1602 23.3015 17.8662C22.9227 17.6228 22.6483 17.2521 22.1678 17.2039C21.4597 16.2372 20.4357 15.584 19.4653 14.9012Z" fill="#F8F6EB"/>
</svg>
