<svg width="433" height="160" viewBox="0 0 433 160" fill="none" xmlns="http://www.w3.org/2000/svg">
<g opacity="0.1" filter="url(#filter0_f_71_735)">
<path d="M202.818 69.0862C200.368 74.3235 199.156 75.3415 198.504 75.1831C197.123 74.8383 197.141 68.9381 198.56 64.0668C199.403 61.1812 201.363 56.5015 202.977 56.7366C203.307 56.7856 204.577 57.1772 205.199 62.9999C206.332 62.0714 208.095 60.8377 210.497 59.9094C212.981 58.945 215.187 58.6809 216.676 58.6149C216.435 58.0917 216.04 57.0488 216.123 55.7072C216.233 53.8736 217.153 52.6318 217.512 52.1973C220.156 55.1362 222.792 58.0769 225.436 61.0158C226.731 61.6225 232.238 64.378 234.452 70.6656C235.494 73.6278 235.425 76.285 235.232 77.9253C234.706 78.6665 231.99 82.3463 226.833 83.2905C221.589 84.2535 217.693 81.6797 216.963 81.183C216.842 81.5337 216.404 82.6336 215.239 83.3351C213.494 84.389 211.638 83.6221 211.443 83.5344C211.778 82.0069 212.11 80.4847 212.445 78.9573C211.138 77.8627 209.785 76.643 208.409 75.2979C206.237 73.1556 204.39 71.0588 202.818 69.0862Z" fill="black"/>
<path d="M212.437 78.9449C209.017 76.5139 205.726 73.1681 202.82 69.0804C201.994 70.8914 199.784 75.4999 198.506 75.1773C197.311 74.8774 197.402 70.3968 197.828 67.4811C198.579 62.3155 201.175 56.47 202.979 56.7309C203.731 56.8357 204.623 58.0485 205.201 62.9942C206.893 61.6636 211.927 58.0642 218.344 58.6708C228.884 59.6722 237.69 71.5198 235.229 77.9163C233.84 81.5297 229.132 82.762 228.243 82.9978C224.847 83.8879 221.137 83.4113 217.421 81.8016" stroke="black" stroke-width="1.67862" stroke-miterlimit="10" stroke-linecap="round" stroke-linejoin="round"/>
<path d="M225.428 61.0033C222.784 58.0645 220.149 55.1237 217.504 52.1848C217.142 52.6246 216.493 53.5233 216.226 54.8287C215.855 56.6431 216.435 58.0912 216.674 58.6058" stroke="black" stroke-width="1.67862" stroke-miterlimit="10" stroke-linecap="round" stroke-linejoin="round"/>
<path d="M224.47 65.6381C223.599 66.572 222.656 67.7695 221.805 69.2618C219.676 72.9927 219.263 76.6032 219.205 78.736C218.941 79.4153 218.259 80.8837 216.71 82.0478C214.493 83.7142 212.069 83.5806 211.44 83.5252C211.396 83.0983 211.093 79.8342 213.341 77.9585C213.899 77.4892 214.499 77.2088 215.038 77.0365" stroke="black" stroke-width="1.67862" stroke-miterlimit="10" stroke-linecap="round" stroke-linejoin="round"/>
<path d="M226.278 75.0309C226.983 75.4823 227.921 75.2762 228.373 74.5705C228.824 73.8648 228.618 72.9266 227.913 72.4752C227.207 72.0237 226.269 72.2298 225.817 72.9355C225.366 73.6412 225.572 74.5794 226.278 75.0309Z" fill="black"/>
<path d="M19.937 53.4767C16.7386 60.423 15.1122 61.7526 14.2183 61.5221C12.3232 61.0216 12.1824 53.1192 13.983 46.6343C15.0521 42.7928 17.5977 36.5797 19.8072 36.9399C20.2596 37.0147 22.0042 37.5749 23.0168 45.3913C24.5374 44.1794 26.9104 42.5765 30.164 41.4003C33.5287 40.1782 36.5331 39.8863 38.5639 39.8396C38.2203 39.1321 37.6508 37.7242 37.727 35.9295C37.8262 33.4766 39.0473 31.8391 39.5255 31.2672C43.2179 35.2777 46.8986 39.2904 50.591 43.3009C52.3755 44.1499 59.9713 47.995 63.1704 56.4787C64.6766 60.4756 64.6571 64.0328 64.4393 66.2244C63.7422 67.2024 60.1374 72.0552 53.1219 73.1752C45.9898 74.3181 40.5982 70.7616 39.5872 70.0759C39.4319 70.5421 38.8647 72.0032 37.2942 72.9101C34.9421 74.2728 32.3862 73.1936 32.1177 73.0706C32.5324 71.0341 32.9426 69.0045 33.3572 66.968C31.5418 65.4653 29.6608 63.7938 27.7448 61.9535C24.7192 59.0231 22.1388 56.1629 19.937 53.4767Z" fill="black"/>
<path d="M33.3456 66.9511C28.6092 63.5991 24.0214 59.0255 19.9399 53.469C18.8624 55.8714 15.9739 61.9822 14.2212 61.5144C12.5804 61.0791 12.5795 55.0803 13.0796 51.1868C13.9602 44.2889 17.3402 36.5322 19.8101 36.9322C20.84 37.0936 22.092 38.7431 23.0196 45.3836C25.2933 43.6488 32.0646 38.9687 40.8423 39.9612C55.2618 41.5979 67.6157 57.7135 64.4349 66.2121C62.6396 71.0131 56.2472 72.5317 55.0402 72.8226C50.4283 73.9197 45.3496 73.1773 40.2312 70.9172" stroke="black" stroke-width="1.67862" stroke-miterlimit="10" stroke-linecap="round" stroke-linejoin="round"/>
<path d="M50.5798 43.2838C46.8874 39.2734 43.2067 35.2606 39.5143 31.2501C39.0317 31.8289 38.1711 33.0145 37.8434 34.7555C37.3877 37.1754 38.2191 39.1312 38.5599 39.8272" stroke="black" stroke-width="1.67862" stroke-miterlimit="10" stroke-linecap="round" stroke-linejoin="round"/>
<path d="M49.4017 49.465C48.2394 50.6915 46.9852 52.269 45.8646 54.244C43.0632 59.1816 42.6005 64.006 42.581 66.861C42.2384 67.7635 41.3497 69.7112 39.2672 71.2269C36.2864 73.3969 32.9734 73.15 32.1133 73.0582C32.0409 72.4852 31.5357 68.1046 34.5523 65.6552C35.3017 65.0423 36.1131 64.6836 36.8432 64.4679" stroke="black" stroke-width="1.67862" stroke-miterlimit="10" stroke-linecap="round" stroke-linejoin="round"/>
<path d="M52.1329 62.0965C53.1091 62.721 54.3841 62.4712 54.9807 61.5386C55.5774 60.606 55.2697 59.3437 54.2935 58.7192C53.3173 58.0946 52.0423 58.3444 51.4456 59.277C50.849 60.2097 51.1567 61.472 52.1329 62.0965Z" fill="black"/>
<path d="M304.641 56.2388C302.991 59.765 302.175 60.4504 301.736 60.3437C300.807 60.1116 300.819 56.139 301.774 52.8593C302.341 50.9164 303.661 47.7657 304.748 47.924C304.97 47.957 305.825 48.2207 306.244 52.141C307.006 51.5158 308.194 50.6852 309.811 50.0602C311.484 49.4109 312.969 49.233 313.971 49.1886C313.809 48.8363 313.543 48.1342 313.599 47.2309C313.673 45.9964 314.292 45.1603 314.534 44.8677C316.314 46.8464 318.089 48.8264 319.869 50.8051C320.741 51.2136 324.449 53.0688 325.939 57.3022C326.641 59.2966 326.595 61.0856 326.465 62.19C326.111 62.689 324.282 65.1666 320.809 65.8023C317.279 66.4507 314.656 64.7178 314.164 64.3834C314.083 64.6195 313.788 65.3601 313.003 65.8324C311.829 66.5419 310.579 66.0256 310.448 65.9665C310.674 64.9381 310.897 63.9132 311.123 62.8848C310.242 62.1478 309.332 61.3267 308.405 60.421C306.943 58.9786 305.699 57.5669 304.641 56.2388Z" fill="black"/>
<path d="M311.116 62.876C308.814 61.2392 306.598 58.9866 304.642 56.2344C304.085 57.4537 302.597 60.5565 301.737 60.3393C300.932 60.1374 300.994 57.1207 301.281 55.1576C301.786 51.6796 303.534 47.744 304.748 47.9196C305.255 47.9902 305.856 48.8068 306.245 52.1366C307.384 51.2407 310.773 48.8173 315.094 49.2258C322.19 49.9 328.119 57.8767 326.462 62.1834C325.527 64.6163 322.357 65.4459 321.759 65.6047C319.472 66.2041 316.974 65.8831 314.472 64.7994" stroke="black" stroke-width="1.13019" stroke-miterlimit="10" stroke-linecap="round" stroke-linejoin="round"/>
<path d="M319.864 50.7961C318.083 48.8174 316.309 46.8375 314.529 44.8588C314.285 45.1548 313.848 45.7599 313.668 46.6388C313.418 47.8604 313.808 48.8354 313.969 49.1819" stroke="black" stroke-width="1.13019" stroke-miterlimit="10" stroke-linecap="round" stroke-linejoin="round"/>
<path d="M319.218 53.9167C318.632 54.5455 317.997 55.3518 317.424 56.3565C315.991 58.8685 315.713 61.2994 315.674 62.7353C315.495 63.1927 315.037 64.1814 313.994 64.9651C312.501 66.0871 310.869 65.9971 310.446 65.9598C310.416 65.6724 310.212 63.4747 311.725 62.2118C312.101 61.8959 312.505 61.7071 312.868 61.5911" stroke="black" stroke-width="1.13019" stroke-miterlimit="10" stroke-linecap="round" stroke-linejoin="round"/>
<path d="M320.435 60.2407C320.91 60.5447 321.542 60.4059 321.846 59.9307C322.15 59.4556 322.011 58.8239 321.536 58.52C321.061 58.216 320.429 58.3547 320.125 58.8299C319.821 59.3051 319.96 59.9367 320.435 60.2407Z" fill="black"/>
<path d="M138.603 66.5107C136.652 70.6939 135.682 71.5048 135.158 71.3761C134.048 71.0961 134.045 66.3751 135.17 62.4818C135.837 60.1754 137.397 56.4369 138.694 56.6299C138.959 56.6701 139.98 56.9873 140.497 61.648C141.403 60.9085 142.815 59.9267 144.741 59.1912C146.733 58.427 148.503 58.2223 149.699 58.1739C149.504 57.7546 149.183 56.919 149.246 55.8458C149.329 54.379 150.064 53.3881 150.351 53.0415C152.482 55.401 154.607 57.7619 156.739 60.1213C157.78 60.6107 162.21 62.832 164.007 67.8695C164.853 70.2428 164.805 72.3687 164.655 73.6806C164.235 74.272 162.066 77.2082 157.927 77.9482C153.72 78.7029 150.584 76.6319 149.996 76.2323C149.9 76.5125 149.552 77.3913 148.619 77.9491C147.221 78.7871 145.729 78.1679 145.572 78.0971C145.836 76.8759 146.098 75.659 146.363 74.4378C145.31 73.5581 144.22 72.5781 143.111 71.4977C141.361 69.777 139.872 68.0938 138.603 66.5107Z" fill="black"/>
<path d="M146.355 74.4273C143.602 72.4719 140.949 69.785 138.604 66.5056C137.946 67.9521 136.185 71.6329 135.159 71.3709C134.198 71.1274 134.258 67.5426 134.591 65.2109C135.179 61.08 137.245 56.4107 138.694 56.6248C139.299 56.7109 140.018 57.684 140.497 61.6429C141.852 60.5834 145.883 57.7185 151.037 58.2232C159.503 59.0561 166.609 68.5621 164.652 73.6728C163.547 76.5598 159.771 77.5317 159.058 77.7177C156.334 78.4197 153.354 78.0272 150.366 76.7281" stroke="black" stroke-width="0.81181" stroke-miterlimit="10" stroke-linecap="round" stroke-linejoin="round"/>
<path d="M156.732 60.1108C154.6 57.7513 152.475 55.3904 150.343 53.031C150.054 53.3818 149.535 54.0989 149.325 55.1426C149.033 56.5932 149.502 57.7536 149.696 58.1661" stroke="black" stroke-width="0.81181" stroke-miterlimit="10" stroke-linecap="round" stroke-linejoin="round"/>
<path d="M155.977 63.8163C155.28 64.561 154.527 65.5163 153.848 66.7078C152.15 69.6866 151.829 72.5742 151.789 74.2805C151.578 74.8233 151.036 75.9962 149.795 76.9229C148.02 78.2496 146.074 78.1354 145.568 78.0892C145.532 77.7475 145.279 75.1349 147.078 73.6408C147.525 73.267 148.006 73.0445 148.437 72.9082" stroke="black" stroke-width="0.81181" stroke-miterlimit="10" stroke-linecap="round" stroke-linejoin="round"/>
<path d="M157.456 71.3372C158.024 71.7006 158.777 71.5385 159.137 70.9752C159.498 70.4118 159.329 69.6606 158.761 69.2972C158.193 68.9339 157.441 69.0959 157.08 69.6593C156.72 70.2226 156.888 70.9738 157.456 71.3372Z" fill="black"/>
<path d="M237.871 96.8241C236.222 100.35 235.405 101.036 234.967 100.929C234.037 100.697 234.049 96.7244 235.004 93.4446C235.571 91.5018 236.891 88.351 237.978 88.5093C238.2 88.5423 239.055 88.806 239.474 92.7263C240.237 92.1011 241.424 91.2705 243.041 90.6455C244.714 89.9962 246.199 89.8184 247.202 89.7739C247.039 89.4217 246.773 88.7195 246.829 87.8163C246.903 86.5817 247.523 85.7456 247.764 85.4531C249.545 87.4318 251.319 89.4117 253.099 91.3904C253.971 91.7989 257.679 93.6542 259.169 97.8875C259.871 99.8819 259.825 101.671 259.695 102.775C259.341 103.274 257.512 105.752 254.04 106.388C250.509 107.036 247.886 105.303 247.394 104.969C247.313 105.205 247.018 105.945 246.234 106.418C245.059 107.127 243.809 106.611 243.678 106.552C243.904 105.523 244.127 104.499 244.353 103.47C243.473 102.733 242.562 101.912 241.636 101.006C240.173 99.5639 238.93 98.1522 237.871 96.8241Z" fill="black"/>
<path d="M244.346 103.461C242.044 101.824 239.828 99.5718 237.872 96.8196C237.315 98.0389 235.827 101.142 234.967 100.925C234.162 100.723 234.224 97.706 234.511 95.7428C235.017 92.2649 236.764 88.3292 237.979 88.5049C238.485 88.5754 239.086 89.392 239.475 92.7219C240.614 91.826 244.003 89.4025 248.324 89.811C255.421 90.4852 261.349 98.462 259.692 102.769C258.757 105.202 255.587 106.031 254.989 106.19C252.702 106.789 250.204 106.468 247.703 105.385" stroke="black" stroke-width="1.13019" stroke-miterlimit="10" stroke-linecap="round" stroke-linejoin="round"/>
<path d="M253.094 91.3814C251.313 89.4027 249.539 87.4228 247.759 85.4441C247.515 85.7402 247.078 86.3452 246.898 87.2241C246.648 88.4458 247.038 89.4207 247.199 89.7672" stroke="black" stroke-width="1.13019" stroke-miterlimit="10" stroke-linecap="round" stroke-linejoin="round"/>
<path d="M252.448 94.502C251.862 95.1308 251.227 95.937 250.654 96.9418C249.221 99.4537 248.943 101.885 248.904 103.321C248.726 103.778 248.267 104.767 247.224 105.55C245.731 106.672 244.099 106.582 243.676 106.545C243.646 106.258 243.442 104.06 244.955 102.797C245.331 102.481 245.735 102.292 246.098 102.176" stroke="black" stroke-width="1.13019" stroke-miterlimit="10" stroke-linecap="round" stroke-linejoin="round"/>
<path d="M253.665 100.826C254.141 101.13 254.772 100.991 255.076 100.516C255.38 100.041 255.241 99.4093 254.766 99.1053C254.291 98.8014 253.659 98.9401 253.355 99.4153C253.051 99.8905 253.19 100.522 253.665 100.826Z" fill="black"/>
<path d="M162.669 80.4326C160.219 85.67 159.007 86.6879 158.355 86.5295C156.974 86.1848 156.992 80.2845 158.411 75.4133C159.254 72.5276 161.214 67.8479 162.828 68.0831C163.158 68.132 164.428 68.5237 165.05 74.3463C166.183 73.4178 167.946 72.1842 170.348 71.2558C172.832 70.2915 175.038 70.0273 176.527 69.9613C176.286 69.4381 175.891 68.3953 175.974 67.0537C176.084 65.22 177.004 63.9782 177.363 63.5437C180.007 66.4826 182.643 69.4233 185.287 72.3622C186.582 72.969 192.089 75.7245 194.303 82.012C195.345 84.9742 195.276 87.6314 195.083 89.2718C194.557 90.0129 191.841 93.6928 186.684 94.6369C181.44 95.5999 177.544 93.0262 176.813 92.5295C176.692 92.8801 176.254 93.9801 175.09 94.6815C173.345 95.7354 171.489 94.9685 171.294 94.8808C171.629 93.3534 171.961 91.8311 172.296 90.3037C170.989 89.2091 169.636 87.9895 168.26 86.6444C166.088 84.502 164.241 82.4052 162.669 80.4326Z" fill="black"/>
<path d="M172.288 90.2913C168.869 87.8603 165.577 84.5146 162.671 80.4269C161.845 82.2378 159.635 86.8463 158.358 86.5238C157.162 86.2238 157.253 81.7433 157.679 78.8275C158.43 73.6619 161.026 67.8165 162.83 68.0773C163.582 68.1821 164.474 69.395 165.052 74.3406C166.745 73.01 171.778 69.4106 178.195 70.0173C188.736 71.0187 197.541 82.8662 195.08 89.2627C193.691 92.8761 188.983 94.1084 188.095 94.3442C184.698 95.2344 180.988 94.7577 177.272 93.1481" stroke="black" stroke-width="1.67862" stroke-miterlimit="10" stroke-linecap="round" stroke-linejoin="round"/>
<path d="M185.279 72.3498C182.635 69.4109 180 66.4701 177.355 63.5313C176.993 63.971 176.344 64.8697 176.077 66.1751C175.706 67.9895 176.286 69.4376 176.525 69.9522" stroke="black" stroke-width="1.67862" stroke-miterlimit="10" stroke-linecap="round" stroke-linejoin="round"/>
<path d="M184.321 76.9846C183.45 77.9185 182.507 79.1159 181.656 80.6083C179.527 84.3391 179.114 87.9497 179.056 90.0824C178.792 90.7617 178.11 92.2301 176.561 93.3942C174.344 95.0606 171.92 94.927 171.291 94.8716C171.247 94.4448 170.944 91.1806 173.192 89.3049C173.75 88.8356 174.35 88.5552 174.889 88.383" stroke="black" stroke-width="1.67862" stroke-miterlimit="10" stroke-linecap="round" stroke-linejoin="round"/>
<path d="M186.129 86.3774C186.834 86.8288 187.772 86.6227 188.224 85.917C188.675 85.2113 188.469 84.2731 187.764 83.8216C187.058 83.3702 186.12 83.5763 185.668 84.282C185.217 84.9877 185.423 85.9259 186.129 86.3774Z" fill="black"/>
<g filter="url(#filter1_f_71_735)">
<path d="M179.027 120.299C174.992 128.949 172.986 130.626 171.903 130.359C169.608 129.781 169.601 120.019 171.927 111.968C173.307 107.199 176.533 99.4692 179.213 99.8682C179.762 99.9513 181.873 100.607 182.942 110.244C184.816 108.715 187.736 106.685 191.719 105.164C195.837 103.584 199.498 103.161 201.969 103.061C201.566 102.194 200.902 100.466 201.032 98.2468C201.204 95.2138 202.724 93.165 203.317 92.4484C207.725 97.3271 212.119 102.209 216.527 107.088C218.68 108.099 227.84 112.693 231.555 123.109C233.304 128.016 233.206 132.412 232.895 135.125C232.027 136.348 227.541 142.419 218.984 143.949C210.285 145.51 203.8 141.227 202.585 140.401C202.386 140.98 201.666 142.797 199.736 143.951C196.847 145.684 193.76 144.403 193.436 144.257C193.983 141.732 194.524 139.215 195.071 136.69C192.894 134.871 190.641 132.845 188.348 130.611C184.729 127.053 181.649 123.573 179.027 120.299Z" fill="black"/>
<path d="M195.057 136.67C189.365 132.627 183.88 127.071 179.03 120.29C177.67 123.281 174.029 130.892 171.907 130.35C169.92 129.846 170.044 122.434 170.733 117.613C171.948 109.071 176.221 99.416 179.217 99.8588C180.466 100.037 181.955 102.049 182.945 110.235C185.747 108.044 194.081 102.12 204.738 103.164C222.244 104.886 236.936 124.542 232.89 135.11C230.606 141.079 222.799 143.089 221.325 143.473C215.692 144.925 209.529 144.113 203.35 141.427" stroke="black" stroke-width="1.67862" stroke-miterlimit="10" stroke-linecap="round" stroke-linejoin="round"/>
<path d="M216.514 107.067C212.106 102.188 207.712 97.3064 203.304 92.4277C202.705 93.153 201.633 94.6358 201.198 96.7939C200.594 99.7935 201.564 102.193 201.964 103.046" stroke="black" stroke-width="1.67862" stroke-miterlimit="10" stroke-linecap="round" stroke-linejoin="round"/>
<path d="M214.952 114.729C213.512 116.269 211.954 118.244 210.55 120.708C207.039 126.867 206.376 132.838 206.293 136.366C205.857 137.489 204.736 139.914 202.171 141.83C198.5 144.573 194.475 144.337 193.431 144.242C193.354 143.535 192.831 138.133 196.551 135.044C197.476 134.271 198.47 133.81 199.363 133.529" stroke="black" stroke-width="1.67862" stroke-miterlimit="10" stroke-linecap="round" stroke-linejoin="round"/>
<path d="M218.011 130.28C219.186 131.032 220.742 130.696 221.487 129.532C222.233 128.367 221.884 126.813 220.71 126.062C219.536 125.311 217.979 125.646 217.234 126.811C216.489 127.976 216.837 129.529 218.011 130.28Z" fill="black"/>
</g>
<g filter="url(#filter2_f_71_735)">
<path d="M49.4159 91.0605C45.3807 99.7103 43.3746 101.387 42.292 101.121C39.9971 100.542 39.9903 90.7802 42.3156 82.7297C43.6961 77.9607 46.9219 70.2305 49.6021 70.6295C50.1508 70.7126 52.2614 71.3685 53.3304 81.0057C55.2053 79.4765 58.1253 77.4465 62.1076 75.9255C66.2259 74.3454 69.8867 73.9221 72.358 73.8221C71.9547 72.955 71.2913 71.2273 71.4213 69.0081C71.593 65.9751 73.1126 63.9263 73.7061 63.2097C78.1142 68.0884 82.508 72.9701 86.916 77.8488C89.0691 78.8607 98.2289 83.4538 101.944 93.8701C103.693 98.7775 103.595 103.173 103.284 105.886C102.416 107.109 97.9301 113.18 89.373 114.71C80.6734 116.271 74.189 111.989 72.9735 111.162C72.7748 111.742 72.0544 113.559 70.1252 114.712C67.2357 116.445 64.149 115.165 63.825 115.018C64.3718 112.493 64.913 109.977 65.4598 107.452C63.2827 105.633 61.0294 103.606 58.737 101.372C55.1176 97.8144 52.0382 94.3339 49.4159 91.0605Z" fill="black"/>
<path d="M65.4461 107.431C59.7543 103.388 54.2687 97.832 49.4195 91.051C48.0588 94.042 44.418 101.653 42.2957 101.111C40.3088 100.608 40.4326 93.1952 41.122 88.3738C42.3367 79.8322 46.6097 70.1772 49.6058 70.62C50.8552 70.7981 52.3438 72.8102 53.3341 80.9962C56.1359 78.8053 64.4702 72.8814 75.127 73.9251C92.6331 75.6473 107.325 95.3034 103.279 105.871C100.996 111.841 93.188 113.85 91.7137 114.235C86.0808 115.686 79.9184 114.875 73.7393 112.188" stroke="black" stroke-width="1.67862" stroke-miterlimit="10" stroke-linecap="round" stroke-linejoin="round"/>
<path d="M86.9029 77.8281C82.4949 72.9494 78.101 68.0676 73.693 63.189C73.0939 63.9142 72.0224 65.397 71.5876 67.5551C70.9828 70.5547 71.9534 72.9541 72.3536 73.807" stroke="black" stroke-width="1.67862" stroke-miterlimit="10" stroke-linecap="round" stroke-linejoin="round"/>
<path d="M85.3408 85.4904C83.9014 87.0301 82.3429 89.0054 80.9387 91.4691C77.4282 97.6285 76.7649 103.599 76.6818 107.128C76.2463 108.25 75.1247 110.675 72.56 112.591C68.8889 115.335 64.8639 115.099 63.8196 115.003C63.7435 114.296 63.2201 108.894 66.9406 105.805C67.8649 105.032 68.8594 104.572 69.752 104.29" stroke="black" stroke-width="1.67862" stroke-miterlimit="10" stroke-linecap="round" stroke-linejoin="round"/>
<path d="M88.4006 101.042C89.575 101.793 91.1312 101.458 91.8764 100.293C92.6216 99.1281 92.2736 97.5747 91.0991 96.8234C89.9246 96.072 88.3684 96.4072 87.6233 97.572C86.8781 98.7368 87.2261 100.29 88.4006 101.042Z" fill="black"/>
</g>
<path d="M306.531 110.337C304.312 115.113 303.201 116.035 302.598 115.885C301.32 115.557 301.288 110.154 302.558 105.705C303.312 103.069 305.083 98.7998 306.575 99.0285C306.881 99.0761 308.057 99.4453 308.679 104.783C309.717 103.942 311.336 102.827 313.546 101.996C315.832 101.134 317.867 100.91 319.241 100.862C319.014 100.381 318.64 99.4224 318.706 98.1945C318.793 96.5162 319.632 95.3865 319.96 94.9916C322.426 97.7048 324.884 100.42 327.35 103.133C328.551 103.699 333.659 106.268 335.755 112.045C336.742 114.766 336.701 117.199 336.536 118.699C336.056 119.374 333.579 122.721 328.824 123.543C323.99 124.382 320.371 121.993 319.692 121.532C319.583 121.852 319.188 122.856 318.118 123.488C316.516 124.439 314.796 123.721 314.615 123.64C314.912 122.243 315.206 120.852 315.502 119.456C314.286 118.443 313.027 117.315 311.745 116.072C309.722 114.092 307.999 112.156 306.531 110.337Z" fill="black"/>
<path d="M315.495 119.445C312.317 117.19 309.25 114.099 306.533 110.332C305.785 111.983 303.782 116.185 302.6 115.879C301.494 115.595 301.541 111.492 301.911 108.826C302.561 104.101 304.91 98.7695 306.578 99.0233C307.273 99.1255 308.107 100.244 308.681 104.778C310.233 103.573 314.852 100.318 320.782 100.927C330.524 101.931 338.753 112.854 336.533 118.691C335.28 121.989 330.944 123.078 330.125 123.287C326.996 124.074 323.566 123.607 320.121 122.102" stroke="black" stroke-width="1.67862" stroke-miterlimit="10" stroke-linecap="round" stroke-linejoin="round"/>
<path d="M327.343 103.122C324.877 100.408 322.419 97.6934 319.953 94.9802C319.622 95.3799 319.031 96.1975 318.795 97.3908C318.467 99.0493 319.014 100.38 319.239 100.854" stroke="black" stroke-width="1.67862" stroke-miterlimit="10" stroke-linecap="round" stroke-linejoin="round"/>
<path d="M326.497 107.358C325.7 108.206 324.839 109.295 324.065 110.655C322.131 114.054 321.779 117.357 321.743 119.309C321.504 119.929 320.888 121.268 319.467 122.322C317.433 123.829 315.193 123.687 314.612 123.631C314.568 123.24 314.261 120.248 316.321 118.549C316.833 118.124 317.385 117.872 317.881 117.719" stroke="black" stroke-width="1.67862" stroke-miterlimit="10" stroke-linecap="round" stroke-linejoin="round"/>
<path d="M328.244 115.975C328.899 116.394 329.764 116.213 330.175 115.571C330.586 114.928 330.388 114.067 329.732 113.648C329.077 113.229 328.212 113.41 327.801 114.052C327.39 114.695 327.588 115.555 328.244 115.975Z" fill="black"/>
<path d="M374.733 35.1478C371.534 42.0941 369.908 43.4236 369.014 43.1932C367.119 42.6927 366.978 34.7903 368.778 28.3054C369.848 24.4639 372.393 18.2508 374.603 18.611C375.055 18.6858 376.8 19.246 377.812 27.0624C379.333 25.8504 381.706 24.2475 384.959 23.0714C388.324 21.8493 391.329 21.5574 393.359 21.5107C393.016 20.8031 392.446 19.3953 392.522 17.6006C392.622 15.1477 393.843 13.5102 394.321 12.9383C398.013 16.9488 401.694 20.9615 405.386 24.972C407.171 25.821 414.767 29.6661 417.966 38.1498C419.472 42.1467 419.453 45.7039 419.235 47.8955C418.538 48.8735 414.933 53.7263 407.917 54.8463C400.785 55.9892 395.394 52.4327 394.383 51.7469C394.227 52.2132 393.66 53.6742 392.09 54.5812C389.738 55.9439 387.182 54.8647 386.913 54.7417C387.328 52.7052 387.738 50.6756 388.153 48.6391C386.337 47.1363 384.456 45.4648 382.54 43.6246C379.515 40.6942 376.934 37.834 374.733 35.1478Z" fill="black"/>
<path d="M388.141 48.622C383.404 45.2701 378.816 40.6965 374.735 35.1399C373.657 37.5423 370.769 43.6531 369.016 43.1853C367.375 42.7501 367.374 36.7513 367.875 32.8578C368.755 25.9599 372.135 18.2032 374.605 18.6031C375.635 18.7646 376.887 20.414 377.815 27.0546C380.088 25.3198 386.86 20.6397 395.637 21.6321C410.057 23.2688 422.411 39.3844 419.23 47.883C417.435 52.684 411.042 54.2026 409.835 54.4935C405.223 55.5907 400.145 54.8483 395.026 52.5881" stroke="black" stroke-width="1.67862" stroke-miterlimit="10" stroke-linecap="round" stroke-linejoin="round"/>
<path d="M405.375 24.9548C401.683 20.9443 398.002 16.9316 394.31 12.9211C393.827 13.4999 392.966 14.6855 392.639 16.4265C392.183 18.8463 393.014 20.8022 393.355 21.4981" stroke="black" stroke-width="1.67862" stroke-miterlimit="10" stroke-linecap="round" stroke-linejoin="round"/>
<path d="M404.197 31.136C403.034 32.3625 401.78 33.94 400.66 35.915C397.858 40.8525 397.395 45.677 397.376 48.5319C397.033 49.4344 396.145 51.3822 394.062 52.8979C391.081 55.0678 387.768 54.8209 386.908 54.7291C386.836 54.1561 386.331 49.7755 389.347 47.3262C390.097 46.7133 390.908 46.3546 391.638 46.1389" stroke="black" stroke-width="1.67862" stroke-miterlimit="10" stroke-linecap="round" stroke-linejoin="round"/>
<path d="M406.928 43.7675C407.904 44.392 409.179 44.1423 409.776 43.2096C410.373 42.277 410.065 41.0147 409.089 40.3902C408.113 39.7657 406.837 40.0154 406.241 40.9481C405.644 41.8807 405.952 43.143 406.928 43.7675Z" fill="black"/>
<path d="M350.391 101.609C348.171 106.385 347.06 107.308 346.458 107.157C345.179 106.83 345.147 101.427 346.417 96.9776C347.171 94.3419 348.943 90.0725 350.435 90.3012C350.74 90.3487 351.916 90.7179 352.539 96.0553C353.577 95.2144 355.195 94.0992 357.406 93.2689C359.692 92.4063 361.727 92.1826 363.101 92.1344C362.874 91.6533 362.5 90.695 362.566 89.4671C362.652 87.7888 363.492 86.6592 363.82 86.2642C366.286 88.9775 368.744 91.6923 371.21 94.4056C372.41 94.9719 377.518 97.5409 379.615 103.317C380.602 106.039 380.56 108.471 380.395 109.972C379.916 110.646 377.438 113.994 372.683 114.816C367.849 115.655 364.23 113.265 363.552 112.804C363.443 113.125 363.047 114.128 361.978 114.761C360.376 115.712 358.655 114.994 358.474 114.912C358.771 113.516 359.065 112.125 359.362 110.729C358.146 109.716 356.886 108.587 355.605 107.344C353.581 105.364 351.859 103.429 350.391 101.609Z" fill="black"/>
<path d="M359.353 110.717C356.176 108.462 353.109 105.371 350.392 101.604C349.644 103.255 347.641 107.457 346.459 107.151C345.352 106.867 345.4 102.764 345.769 100.098C346.42 95.3733 348.768 90.0415 350.436 90.2954C351.132 90.3975 351.965 91.5156 352.54 96.0495C354.092 94.845 358.71 91.5903 364.64 92.1989C374.382 93.2031 382.611 104.126 380.392 109.963C379.139 113.261 374.802 114.35 373.983 114.559C370.854 115.346 367.424 114.879 363.98 113.374" stroke="black" stroke-width="1.67862" stroke-miterlimit="10" stroke-linecap="round" stroke-linejoin="round"/>
<path d="M371.202 94.3935C368.736 91.6803 366.278 88.9654 363.812 86.2522C363.481 86.6519 362.889 87.4696 362.653 88.6628C362.326 90.3214 362.873 91.6523 363.098 92.1255" stroke="black" stroke-width="1.67862" stroke-miterlimit="10" stroke-linecap="round" stroke-linejoin="round"/>
<path d="M370.355 98.6301C369.559 99.4782 368.698 100.567 367.924 101.927C365.989 105.326 365.638 108.629 365.602 110.581C365.363 111.201 364.746 112.541 363.325 113.594C361.291 115.102 359.052 114.959 358.471 114.903C358.426 114.512 358.12 111.52 360.18 109.821C360.692 109.396 361.244 109.144 361.739 108.991" stroke="black" stroke-width="1.67862" stroke-miterlimit="10" stroke-linecap="round" stroke-linejoin="round"/>
<path d="M372.102 107.247C372.757 107.666 373.622 107.485 374.033 106.843C374.444 106.2 374.246 105.339 373.591 104.92C372.935 104.501 372.071 104.682 371.66 105.324C371.248 105.967 371.447 106.828 372.102 107.247Z" fill="black"/>
<path d="M321.37 32.6574C319.15 37.4334 318.039 38.3557 317.436 38.2052C316.158 37.8781 316.126 32.4748 317.396 28.0255C318.15 25.3898 319.922 21.1205 321.414 21.3491C321.719 21.3967 322.895 21.7659 323.518 27.1033C324.556 26.2623 326.174 25.1472 328.385 24.3169C330.671 23.4542 332.705 23.2306 334.08 23.1824C333.853 22.7013 333.479 21.743 333.545 20.5151C333.631 18.8368 334.471 17.7071 334.799 17.3122C337.265 20.0254 339.723 22.7403 342.189 25.4535C343.389 26.0199 348.497 28.5889 350.593 34.3652C351.581 37.0866 351.539 39.5195 351.374 41.02C350.895 41.6945 348.417 45.042 343.662 45.864C338.828 46.7025 335.209 44.3133 334.531 43.8524C334.422 44.1725 334.026 45.1762 332.957 45.809C331.355 46.7598 329.634 46.0421 329.453 45.9601C329.75 44.5641 330.044 43.1728 330.341 41.7768C329.125 40.7635 327.865 39.6354 326.584 38.3922C324.56 36.4123 322.838 34.4769 321.37 32.6574Z" fill="black"/>
<path d="M330.333 41.7654C327.155 39.5109 324.088 36.4197 321.371 32.6522C320.623 34.3038 318.62 38.506 317.438 38.2C316.331 37.9155 316.379 33.813 316.748 31.1463C317.399 26.4219 319.748 21.0902 321.415 21.344C322.111 21.4462 322.945 22.5642 323.519 27.0982C325.071 25.8936 329.689 22.6389 335.62 23.2476C345.362 24.2517 353.59 35.1743 351.371 41.0118C350.118 44.3094 345.781 45.399 344.962 45.6076C341.834 46.3948 338.404 45.9276 334.959 44.4228" stroke="black" stroke-width="1.67862" stroke-miterlimit="10" stroke-linecap="round" stroke-linejoin="round"/>
<path d="M342.181 25.4421C339.715 22.7289 337.257 20.014 334.791 17.3008C334.46 17.7005 333.868 18.5181 333.633 19.7114C333.305 21.3699 333.852 22.7009 334.077 23.1741" stroke="black" stroke-width="1.67862" stroke-miterlimit="10" stroke-linecap="round" stroke-linejoin="round"/>
<path d="M341.334 29.6788C340.538 30.5269 339.677 31.6157 338.903 32.9753C336.969 36.3744 336.617 39.6775 336.581 41.6301C336.342 42.25 335.725 43.5892 334.305 44.6424C332.271 46.1502 330.031 46.0078 329.45 45.9518C329.406 45.5606 329.099 42.5688 331.159 40.8696C331.671 40.4445 332.223 40.1927 332.719 40.0393" stroke="black" stroke-width="1.67862" stroke-miterlimit="10" stroke-linecap="round" stroke-linejoin="round"/>
<path d="M343.081 38.2954C343.737 38.7147 344.601 38.5337 345.012 37.8911C345.424 37.2486 345.225 36.3877 344.57 35.9684C343.915 35.5491 343.05 35.7301 342.639 36.3727C342.228 37.0153 342.426 37.8761 343.081 38.2954Z" fill="black"/>
</g>
<defs>
<filter id="filter0_f_71_735" x="0.0467625" y="0.18049" width="432.428" height="156.852" filterUnits="userSpaceOnUse" color-interpolation-filters="sRGB">
<feFlood flood-opacity="0" result="BackgroundImageFix"/>
<feBlend mode="normal" in="SourceGraphic" in2="BackgroundImageFix" result="shape"/>
<feGaussianBlur stdDeviation="5.95065" result="effect1_foregroundBlur_71_735"/>
</filter>
<filter id="filter1_f_71_735" x="167.255" y="89.4064" width="69.3338" height="57.907" filterUnits="userSpaceOnUse" color-interpolation-filters="sRGB">
<feFlood flood-opacity="0" result="BackgroundImageFix"/>
<feBlend mode="normal" in="SourceGraphic" in2="BackgroundImageFix" result="shape"/>
<feGaussianBlur stdDeviation="1.091" result="effect1_foregroundBlur_71_735"/>
</filter>
<filter id="filter2_f_71_735" x="37.6437" y="60.1677" width="69.3338" height="57.907" filterUnits="userSpaceOnUse" color-interpolation-filters="sRGB">
<feFlood flood-opacity="0" result="BackgroundImageFix"/>
<feBlend mode="normal" in="SourceGraphic" in2="BackgroundImageFix" result="shape"/>
<feGaussianBlur stdDeviation="1.091" result="effect1_foregroundBlur_71_735"/>
</filter>
</defs>
</svg>
