<svg width="426" height="40" viewBox="0 0 426 40" fill="none" xmlns="http://www.w3.org/2000/svg">
<path fill-rule="evenodd" clip-rule="evenodd" d="M233.015 17.7624C183.78 18.8024 134.544 21.3746 85.5158 25.5628C58.7368 27.8499 27.6354 27.5759 1.65607 35.3708C-0.390511 35.9859 0.017701 37.8592 0.062435 38.0437C0.151903 38.4295 0.526557 39.71 2.16494 39.7715C2.29355 39.7771 3.17148 39.6653 3.51258 39.6206C11.1621 38.6141 18.7893 37.4398 26.4444 36.4892C52.8878 33.1956 79.3983 30.7129 105.954 28.5321C141.204 25.6356 176.751 24.0866 212.096 22.8844C231.45 22.2189 251.261 23.0968 270.681 21.738C277.794 21.6989 284.918 21.6934 292.042 21.7158C321.829 21.822 351.583 22.9515 381.331 24.5005C390.893 24.9981 398.196 25.5349 407.568 25.8984C411.13 26.0382 416.783 26.1333 420.708 26.1948C421.279 26.206 422.71 26.217 423.331 26.2226C423.415 26.2338 423.499 26.2338 423.582 26.2338C423.884 26.2282 424.035 26.2114 424.063 26.2058C426.194 25.8927 425.998 23.8909 425.937 23.5777C425.925 23.5106 425.612 21.8163 423.789 21.7548C423.515 21.7436 421.541 21.7326 420.781 21.7214C416.884 21.6599 411.275 21.5648 407.741 21.4306C398.392 21.0671 391.106 20.5303 381.56 20.0327C351.745 18.4837 321.919 17.3486 292.059 17.2424C288.569 17.2312 285.086 17.2256 281.608 17.2312C281.35 16.8957 280.953 16.588 280.322 16.4259C279.746 16.2749 275.608 16.1296 274.008 15.9954C262.456 15.0504 262.797 15.0895 250.081 14.3123C230.823 13.1324 227.893 12.8639 207.869 12.3662C183.36 11.7567 158.846 11.589 134.332 11.5722C169.538 9.87235 204.978 10.1016 240.134 9.58714C256.031 9.35788 271.923 8.94413 287.82 9.06715C293.278 9.11188 298.73 9.31322 304.187 9.38032C305.317 9.39709 308.219 9.59278 308.638 9.49772C310.025 9.19018 310.321 8.15567 310.405 7.65242C310.45 7.36164 310.651 5.63942 308.588 5.03551C299.378 2.35146 282.385 2.45768 273.438 1.92646C223.336 -1.03718 173.133 -0.209611 123.008 1.90967C102.313 2.78198 81.6854 4.02902 61.0741 6.04205C53.8664 6.74102 46.6418 7.33934 39.462 8.27876C38.2989 8.42974 35.6764 8.64772 34.4071 8.87698C33.7528 9 33.2887 9.17893 33.0706 9.29636C32.0529 9.87231 31.8796 10.7223 31.874 11.2927C31.8684 11.7064 31.9746 13.2554 34.0324 13.6524C54.9623 17.7511 77.732 16.1519 98.7738 16.096C135.103 16.0066 171.439 15.9338 207.757 16.8396C220.042 17.1472 225.869 17.3653 233.015 17.7624ZM243.477 5.0635C203.396 3.81653 163.269 4.68317 123.193 6.37748C102.582 7.24979 82.0377 8.49122 61.5103 10.4931C58.2391 10.8118 54.9735 11.1081 51.7079 11.4269C67.3816 12.5508 83.5363 11.6674 98.7626 11.6226L109.214 11.6002C109.13 11.3877 109.074 11.1585 109.057 10.9237C108.962 9.69346 109.885 8.61423 111.115 8.51917C153.903 5.27035 197.194 5.74001 240.072 5.11373C241.207 5.09696 242.342 5.08027 243.477 5.0635Z" fill="white"/>
</svg>
